<svg version="1.1" id="Layer_1" xmlns="http://www.w3.org/2000/svg" xmlns:xlink="http://www.w3.org/1999/xlink" x="0px" y="0px"
	 width="100%" viewBox="0 0 592 896" enable-background="new 0 0 592 896" xml:space="preserve">
<path fill="#000000" opacity="1.000000" stroke="none" 
	d="
M365.468658,897.000000 
	C362.126221,893.122314 357.612854,894.254761 353.873962,893.808105 
	C340.135712,892.166748 330.301300,884.357605 323.276581,873.487122 
	C314.849518,860.446533 303.930786,850.770752 290.321075,843.760071 
	C287.955627,842.541504 285.787933,840.933289 283.405365,839.754822 
	C274.890747,835.543030 272.566223,825.490540 275.204895,817.424194 
	C278.120758,808.510498 283.111389,800.537964 287.889526,792.542664 
	C295.772125,779.352661 298.695984,765.421814 297.135529,750.016968 
	C295.727692,736.118530 296.110504,722.037170 298.042084,708.145874 
	C298.532990,704.615479 297.309052,702.940613 294.914612,701.131836 
	C264.208374,677.936768 233.526031,654.710022 202.839172,631.489197 
	C195.001495,625.558472 186.971390,619.859009 179.414246,613.589722 
	C175.383240,610.245667 172.234726,610.524597 167.846863,612.861511 
	C146.534653,624.211792 124.997429,635.139038 103.649117,646.422729 
	C100.124718,648.285461 97.622185,648.113831 94.772545,645.420593 
	C90.416122,641.303284 85.874077,637.373657 81.279671,633.520752 
	C79.194916,631.772400 78.108704,629.773682 78.134819,627.075806 
	C78.208961,619.415710 78.270981,611.755249 78.276947,604.094910 
	C78.279175,601.239807 80.177986,600.072327 82.368080,599.026306 
	C103.406868,588.977234 124.366127,578.756409 145.530411,568.979309 
	C150.126434,566.856201 150.904144,564.434204 150.247726,559.743530 
	C147.784271,542.139893 145.800476,524.468933 143.659760,506.820496 
	C141.938828,492.632690 140.265869,478.439056 138.519089,464.254486 
	C138.382904,463.148499 137.832581,462.093536 137.362518,460.676575 
	C133.283569,462.433624 131.215424,465.494537 130.291031,469.312164 
	C128.564850,476.441162 123.893120,480.604126 117.014885,481.976410 
	C109.992195,483.377502 103.430992,482.486542 98.739838,475.982300 
	C95.765465,471.858368 90.725288,470.077454 87.257973,466.443909 
	C73.361382,451.880829 64.545464,434.918488 63.791428,414.543488 
	C63.447552,405.251434 64.446877,395.916229 64.597816,386.596741 
	C64.682404,381.374237 63.688580,380.705475 59.131210,382.886719 
	C44.852737,389.720795 31.857868,384.344177 23.012691,374.656158 
	C10.263229,360.691742 4.070210,343.781708 2.812462,325.204803 
	C1.913457,311.926575 1.970037,298.570190 6.996974,285.789246 
	C9.086593,280.476440 11.657293,275.481140 14.912066,270.820618 
	C26.887121,253.673492 47.170387,251.631470 62.235519,266.180328 
	C67.664047,271.422852 71.965881,277.574646 75.226570,284.402374 
	C77.352600,288.854156 80.194336,289.626221 84.009979,286.312378 
	C86.531311,284.122620 88.231171,281.368958 88.889107,277.870148 
	C90.941887,266.953766 94.602463,256.633209 101.605927,247.811676 
	C113.680618,232.602463 133.354584,230.831787 146.970474,244.632126 
	C152.552933,250.290222 156.552246,251.969711 164.811935,249.593781 
	C180.689438,245.026566 195.247910,250.761185 208.153702,260.577087 
	C210.397034,262.283325 211.352264,264.772186 212.050446,267.382324 
	C212.823746,270.273285 213.571030,273.171234 214.346039,276.061737 
	C216.001862,282.237488 217.580902,286.057617 226.357498,286.666687 
	C234.924911,287.261261 242.568222,288.719971 251.402039,286.114777 
	C261.509674,283.133881 272.435822,284.770142 283.482574,288.561920 
	C280.407959,280.303680 278.009003,272.702362 277.177002,264.780975 
	C275.077759,244.793655 276.447449,225.414261 289.132446,208.621796 
	C300.391632,193.716827 318.715546,192.428589 332.202362,205.346252 
	C338.052216,210.949234 342.491882,217.599930 345.726990,224.979630 
	C347.090546,228.090073 348.359741,229.845261 352.284180,228.921036 
	C355.248047,228.223007 358.508179,228.782883 361.870636,228.782883 
	C363.408051,222.983398 364.923645,216.896286 366.646942,210.868546 
	C368.408234,204.707886 371.488312,199.181244 375.460785,194.179260 
	C385.710724,181.272903 403.176575,179.512772 415.789276,190.082306 
	C424.472412,197.358902 430.382843,206.748184 433.864105,217.238724 
	C440.406097,236.952301 441.521851,256.992401 434.445435,276.976776 
	C432.936493,281.238098 430.906006,285.228607 428.493256,289.044006 
	C421.232544,300.525848 410.722626,305.650177 397.278687,305.064667 
	C395.628723,304.992798 393.980896,304.871490 391.987183,304.752533 
	C390.568726,309.066742 391.754791,313.201050 393.073456,316.913544 
	C398.992340,333.577393 397.180328,349.969543 392.095123,366.337555 
	C389.813019,373.683075 389.203094,381.327545 387.831879,388.836884 
	C386.530273,395.964935 379.931580,400.587524 372.820984,398.947052 
	C366.030640,397.380463 359.696808,398.683197 352.905396,400.573486 
	C354.429413,403.710388 356.225311,405.994995 359.195221,407.530670 
	C364.240631,410.139557 367.698822,414.550018 370.436584,419.309235 
	C372.342316,422.622101 374.873230,425.471771 376.596313,428.947906 
	C378.348389,432.482574 382.497772,432.399170 385.907623,432.565186 
	C391.719513,432.848053 396.379120,434.389404 399.826477,439.697693 
	C402.565491,443.915131 407.972290,443.106384 412.218842,443.466797 
	C421.912964,444.289673 431.345154,446.156403 440.497314,449.236969 
	C452.801514,453.378479 465.664673,455.769196 477.639526,460.850586 
	C486.745331,464.714600 496.615082,467.786346 500.789215,478.366516 
	C501.425873,479.980255 503.560425,480.036072 505.050629,480.719788 
	C525.294861,490.008270 545.138733,500.115997 559.388245,517.889465 
	C566.427185,526.669250 574.781860,533.432068 584.036987,539.441406 
	C587.832336,541.905762 591.395020,544.694946 592.833984,549.701416 
	C593.000000,558.687561 593.000000,567.375183 592.757812,576.761353 
	C591.217468,579.419983 589.594299,581.017700 587.708069,582.460571 
	C579.393616,588.820618 572.045654,595.532898 567.805603,605.912415 
	C561.422363,621.538208 550.987610,634.453064 536.460022,643.826904 
	C531.909607,646.763123 527.994507,650.845093 524.262329,654.844666 
	C520.147766,659.253906 520.275208,661.461975 524.125305,666.125793 
	C527.442139,670.143616 530.431580,674.399475 532.242554,679.239075 
	C536.530579,690.698242 544.453674,698.251465 555.525208,703.208618 
	C561.344849,705.814453 565.927368,710.348450 569.076172,716.091980 
	C571.614136,720.721436 569.925903,725.123047 568.448120,729.556152 
	C568.295837,730.013245 568.436768,730.560181 568.338318,731.044373 
	C567.144287,736.921387 563.808167,742.134766 559.018311,744.752258 
	C549.252686,750.088562 529.283752,749.284363 521.286255,734.392822 
	C517.152039,726.694763 510.167145,724.619141 502.475342,721.716858 
	C503.112610,726.901367 500.310760,728.991333 496.755463,731.029663 
	C451.407593,757.028076 406.125458,783.141235 360.842743,809.253113 
	C359.146088,810.231506 357.181396,810.911316 355.780975,813.173157 
	C358.166046,817.633240 360.614349,822.327515 363.167236,826.964233 
	C371.719360,842.497070 383.022919,855.220703 399.456085,862.833069 
	C405.866089,865.802368 410.244415,873.983215 409.483063,880.994995 
	C409.052429,884.961243 407.648438,888.819580 403.861359,890.428040 
	C400.414795,891.891968 398.220001,894.338379 396.000000,897.000000 
	C385.979095,897.000000 375.958221,897.000000 365.468658,897.000000 
M143.553055,362.360291 
	C138.917709,364.459778 133.934052,364.691376 128.762192,364.910339 
	C128.378998,366.427307 127.840324,367.782654 128.563858,369.316864 
	C132.580399,370.954407 137.325272,366.648224 141.215973,370.583618 
	C140.201233,372.787994 138.220657,372.816559 136.572754,373.438812 
	C131.752075,375.259186 126.658363,376.355652 122.108063,378.893188 
	C114.108139,383.354462 113.200806,387.031677 120.043015,392.793182 
	C131.215073,402.200623 131.492233,414.194183 129.645828,426.973694 
	C129.389603,428.747131 128.681488,430.494598 127.941284,432.145935 
	C127.383575,433.390167 126.312706,434.371674 124.763588,434.045990 
	C122.861023,433.645966 122.590683,432.021393 122.791351,430.521393 
	C123.186348,427.568756 123.542297,424.556213 124.439789,421.735626 
	C127.264435,412.858459 124.265488,405.759796 118.101372,399.534210 
	C115.288757,396.693542 112.621422,393.629608 109.460106,391.231201 
	C103.882538,386.999695 101.980690,381.343018 101.699242,374.715179 
	C101.445984,368.750916 100.697342,362.840973 98.931801,356.841827 
	C97.644882,358.338593 99.312332,360.792206 96.877266,361.509033 
	C95.467255,361.322632 95.141220,360.145874 94.867722,359.042938 
	C93.204491,352.335571 95.237633,347.320709 101.505844,344.030060 
	C115.267761,336.805420 124.719345,326.663818 126.290771,310.380066 
	C126.839516,304.693695 126.257133,302.972473 120.480721,302.504822 
	C116.286789,302.165344 112.275627,301.256927 108.268051,300.122528 
	C105.921173,299.458221 103.026894,298.029877 101.665375,301.102783 
	C100.282341,304.224274 101.889633,306.928802 104.701248,308.756195 
	C106.393913,309.856323 108.290916,310.357330 110.273232,310.799377 
	C114.518982,311.746216 118.743080,311.248901 123.186394,310.580627 
	C123.588020,314.563721 121.307060,315.677734 118.578308,316.286255 
	C112.862312,317.560913 107.363846,319.490265 102.128304,322.057709 
	C95.530426,325.293243 91.569786,330.780548 90.197678,338.474640 
	C87.624947,335.476105 87.609962,335.274536 87.823021,332.783325 
	C87.955627,331.232788 89.921303,328.851227 86.689774,328.504822 
	C83.803413,328.195435 84.394814,330.778656 84.359230,332.464996 
	C84.044930,347.358765 79.764816,360.949158 71.132179,373.126740 
	C70.054428,374.647064 69.259918,376.092712 69.579491,378.165314 
	C70.907578,386.778687 70.727402,395.512787 69.700356,404.062927 
	C67.908340,418.981262 72.150566,431.879028 80.337219,444.084259 
	C87.822914,455.244415 98.385925,463.680786 106.327721,474.402588 
	C106.856796,475.116882 107.925980,475.619659 108.835007,475.833221 
	C114.582245,477.183289 121.166206,474.537476 123.515930,469.041107 
	C126.947701,461.013702 132.642090,455.340057 139.658295,450.517700 
	C152.284805,441.839294 158.759415,429.669678 159.831924,414.391968 
	C160.494736,404.950745 161.257462,395.471863 165.298172,386.652283 
	C166.561951,383.893860 167.995743,381.292053 170.242279,379.227875 
	C171.099243,378.440521 172.116592,377.667603 173.357010,378.457550 
	C174.416031,379.131958 175.025482,380.323822 174.825424,381.451172 
	C174.569809,382.891602 173.913834,384.296143 173.244110,385.622040 
	C169.675888,392.686523 169.235779,400.155579 171.539871,407.484589 
	C173.478210,413.650177 177.074875,418.762390 184.259933,420.207886 
	C192.801270,421.926239 200.956528,424.677643 208.005936,430.130188 
	C220.733398,439.974640 233.982559,449.183502 245.180130,461.426788 
	C257.101166,444.551697 271.400055,430.531158 288.821503,419.910797 
	C306.385529,409.203491 325.194946,402.542419 347.256470,404.251526 
	C344.588043,401.061279 342.982971,398.934662 341.167572,397.005951 
	C330.381592,385.546753 324.848145,372.211334 325.511932,356.246857 
	C325.759277,350.297760 324.036133,344.548431 321.431000,338.948334 
	C315.890137,327.037415 306.096466,320.550781 294.477386,315.951630 
	C292.763123,315.273041 290.431183,315.146820 289.937225,312.629333 
	C291.156189,310.234497 293.781189,312.296814 295.833221,310.464233 
	C293.749695,302.541321 287.955597,297.369720 281.192139,293.574585 
	C270.558868,287.608032 259.241302,289.710968 247.338898,291.280609 
	C249.459961,294.938599 254.142410,295.370239 253.515900,299.402496 
	C252.484680,300.353699 251.537857,300.301727 250.947983,299.744446 
	C246.812500,295.837524 241.364166,295.484192 236.276031,294.018860 
	C213.359970,287.419250 192.988541,294.239746 173.413239,305.596161 
	C171.055756,306.963837 169.903519,308.860474 169.726593,311.645752 
	C169.378845,317.120453 168.837830,322.603851 167.285004,327.892792 
	C163.229553,341.705414 157.895279,354.692261 143.553055,362.360291 
M304.340118,765.432495 
	C304.566071,771.504883 303.317657,777.311462 301.389771,783.040649 
	C298.043701,792.984314 292.120178,801.437500 286.125793,809.852722 
	C280.478363,817.780823 280.000641,831.715332 291.975861,837.037659 
	C296.978638,839.261108 301.658600,842.230896 306.415436,844.982300 
	C311.646820,848.008118 316.076569,851.780762 319.532684,856.960815 
	C325.839844,866.413879 333.392242,874.804443 342.343964,881.969604 
	C346.779999,885.520203 351.294617,887.442078 356.983917,886.825806 
	C361.766937,886.307739 366.065125,887.732849 370.257416,890.209534 
	C377.347656,894.398254 384.730591,893.440369 391.702667,889.846436 
	C396.121307,887.568726 396.461365,884.627808 393.733612,880.316772 
	C392.176758,877.856323 390.077820,876.051941 387.576111,874.603271 
	C386.209747,873.811890 384.169037,872.982849 385.489532,870.881470 
	C386.567169,869.166443 388.369720,869.685852 389.995422,870.354187 
	C392.830933,871.519775 395.098724,873.429077 397.231598,875.582886 
	C398.418396,876.781494 399.303162,878.476807 401.341522,878.927307 
	C402.133606,875.088562 400.769165,872.379639 397.929108,870.480652 
	C395.306244,868.726868 392.538055,867.166626 389.736847,865.707397 
	C376.098694,858.603027 365.352753,848.468811 357.313263,835.360291 
	C351.374634,825.677246 347.101440,815.153259 341.742645,805.186035 
	C335.161316,792.945068 334.480408,780.047302 337.463776,766.874634 
	C339.934021,755.967590 344.296600,745.637268 349.054901,735.562683 
	C355.601624,721.701477 361.786652,707.717529 366.961823,693.278625 
	C369.022217,687.530090 370.601410,681.465698 375.587463,677.192383 
	C383.229736,670.642578 386.940002,661.573853 390.124237,652.490112 
	C392.395050,646.012207 392.233765,639.198730 389.024658,632.586914 
	C384.723877,623.725708 381.647827,614.264954 379.843872,604.667053 
	C376.874512,588.868835 369.161652,575.408447 361.224487,561.898499 
	C359.220612,558.487610 356.504730,556.290710 352.822479,555.361023 
	C342.363831,552.720703 332.382874,554.088013 322.866638,559.179321 
	C312.029907,564.977051 304.777954,574.193298 298.606842,584.442749 
	C297.666840,586.004028 296.897186,587.719666 297.685516,589.655945 
	C300.692932,597.042664 303.564056,604.343567 308.971283,610.611938 
	C320.575287,624.063965 330.356506,638.711243 334.740082,656.310913 
	C335.349274,658.756897 336.234772,661.590088 333.389740,662.979187 
	C330.611786,664.335388 330.852753,660.555725 329.205963,659.753906 
	C328.923553,659.616394 328.577209,659.610107 328.136322,659.516968 
	C325.969299,660.609253 325.061340,662.825439 323.946442,664.822510 
	C321.104980,669.912231 318.589233,675.199951 315.506744,680.135864 
	C307.375854,693.155823 305.389801,707.640747 304.154541,722.552063 
	C302.993286,736.569946 303.592163,750.491455 304.340118,765.432495 
M460.337677,485.834869 
	C467.416595,478.198883 477.028870,476.240295 488.035980,474.466888 
	C479.720245,469.039459 471.818665,465.980743 463.897430,463.266846 
	C443.233276,456.187164 421.812531,452.122467 400.341766,448.401672 
	C396.276093,447.697144 393.202850,446.256439 391.394501,442.271759 
	C389.540283,438.185913 386.275848,437.369751 382.263214,439.321625 
	C379.418732,440.705261 376.553833,442.048431 373.676422,443.362274 
	C371.835449,444.202850 369.610718,445.248718 368.330170,443.017792 
	C366.850067,440.439178 369.403992,439.707611 371.097076,438.745880 
	C371.784973,438.355072 372.428650,437.886475 373.169891,437.402710 
	C370.242950,430.337341 365.910461,426.428619 357.794586,426.072113 
	C349.418091,425.704132 341.225067,424.809692 333.231506,428.155518 
	C332.053406,428.648651 330.485199,428.991699 329.912628,427.162323 
	C329.464661,425.731201 330.021057,424.508850 331.301910,423.740570 
	C334.053009,422.090454 337.094940,421.246490 340.223999,420.675934 
	C347.007996,419.438904 353.862183,418.927032 361.203796,419.122681 
	C359.318298,415.268585 356.840179,412.956848 353.217438,412.186981 
	C346.695709,410.800995 340.147583,410.109467 333.411987,410.648590 
	C318.008606,411.881348 304.670258,418.367676 291.620148,425.988708 
	C276.111206,435.045654 263.790375,447.611877 252.268280,461.050964 
	C247.964325,466.070984 247.155106,471.437073 250.221207,474.671143 
	C253.834045,478.481903 254.793655,482.720337 254.428635,487.712006 
	C256.581360,476.337830 261.523041,466.512726 269.243500,458.073090 
	C272.273834,454.760498 275.293243,451.437927 278.317657,448.119934 
	C285.969391,439.725677 294.980774,433.311676 305.727844,429.494293 
	C308.164337,428.628876 310.765625,427.706421 312.983063,430.043854 
	C312.580109,432.560791 310.755676,432.913971 308.957977,433.372162 
	C299.823456,435.700562 292.035828,440.464355 285.668243,447.271851 
	C275.082306,458.589233 267.727783,472.102234 261.232452,485.983856 
	C258.711700,491.371094 258.541595,497.612457 261.444366,503.411469 
	C263.175598,506.869995 264.741119,510.411469 266.606293,514.396790 
	C267.104279,508.073853 261.141418,504.098694 261.788361,498.046326 
	C265.365784,498.955780 265.468292,498.880310 266.171173,499.834991 
	C270.927551,506.294830 274.231018,513.110535 272.833496,521.581055 
	C271.627014,528.893921 269.091309,536.097961 270.899506,543.743103 
	C275.182739,561.852600 284.772522,577.852539 291.171051,595.221191 
	C290.227112,592.058228 290.554077,589.082581 291.787598,586.157104 
	C302.242371,561.362488 316.386749,548.225830 350.846069,549.612915 
	C354.657471,549.766418 356.011322,548.763733 355.702698,544.991699 
	C355.227844,539.188293 354.792358,533.367554 354.710876,527.548950 
	C354.542664,515.538757 360.159760,506.864838 370.740143,501.457977 
	C375.330414,499.112244 380.111145,497.113800 384.898102,495.188141 
	C387.702911,494.059845 388.996552,492.443542 389.160431,489.278900 
	C389.552429,481.710144 391.440735,474.483673 395.568542,467.999115 
	C396.694794,466.229767 397.554016,464.045685 401.432587,464.071136 
	C401.310272,472.619751 391.376678,479.857574 397.087311,488.948761 
	C397.727844,488.914124 398.095581,488.989685 398.373932,488.865295 
	C406.735352,485.128693 415.110352,481.421356 423.436859,477.608124 
	C437.704071,471.074280 451.478546,478.191467 453.950409,494.105408 
	C455.669098,490.884857 457.602722,488.484192 460.337677,485.834869 
M586.569885,555.144653 
	C585.853699,550.922119 584.501038,547.242676 580.380981,544.912354 
	C567.554626,537.657715 557.365723,527.321716 548.229431,516.003113 
	C539.951538,505.748047 529.706421,498.410431 517.804016,493.092377 
	C508.679688,489.015472 498.986115,486.364197 490.016571,481.888397 
	C488.760834,481.261780 487.107147,481.241180 485.641052,481.257019 
	C469.150726,481.435181 455.372070,495.479004 454.255737,512.905151 
	C454.042023,516.241150 455.102081,517.932495 458.044159,519.512451 
	C469.249023,525.529724 480.956238,530.192139 493.175751,533.644653 
	C494.939575,534.143005 497.171631,534.198364 497.745361,537.559753 
	C482.128510,536.771484 468.540192,530.642090 454.132904,524.702515 
	C454.132904,532.419861 454.109528,539.518860 454.154236,546.617493 
	C454.162384,547.908447 455.113251,548.685913 456.186218,549.260559 
	C463.496704,553.175720 470.483490,557.633484 479.016205,558.920288 
	C489.876404,560.558167 500.766357,561.737122 511.692017,562.765686 
	C518.605225,563.416565 525.722168,563.516235 531.894714,567.485229 
	C533.458923,568.491089 535.429749,569.600159 534.814880,571.648438 
	C534.046936,574.206543 531.885559,572.824097 530.158752,572.564575 
	C525.950562,571.932068 521.795715,571.864685 518.330078,574.919434 
	C515.086609,577.778442 511.731598,580.541626 508.739136,583.648926 
	C498.476105,594.305664 495.837799,608.118347 493.336395,621.923889 
	C492.314728,627.562500 491.741058,633.267700 493.097992,639.206604 
	C490.222382,639.308044 488.215393,638.524902 486.711914,641.022400 
	C480.139923,651.939209 471.036469,660.369019 460.193115,666.986389 
	C456.156281,669.449829 454.272095,673.112671 454.314484,677.852783 
	C454.358765,682.811829 457.793152,687.540588 461.740906,687.588928 
	C465.123199,687.630371 467.477753,685.112732 470.194977,683.593567 
	C472.274475,682.431030 470.844482,680.228821 470.984131,678.528870 
	C471.614899,670.850464 479.232178,662.910400 486.154175,663.494385 
	C483.336548,666.880676 480.912750,670.256287 478.015289,673.159119 
	C474.374146,676.807068 479.564789,681.616882 475.719849,685.061218 
	C481.016357,687.062805 486.004578,688.910339 490.964996,690.829773 
	C504.936981,696.236023 502.081116,693.046936 502.260376,707.131287 
	C502.304749,710.618713 503.370728,712.365234 506.628571,713.855835 
	C514.492188,717.453857 522.425720,721.194397 526.025696,730.072876 
	C526.480225,731.193909 527.776489,732.082275 528.857788,732.822937 
	C535.937012,737.671509 543.586914,740.503906 552.336731,739.017944 
	C554.508850,738.649048 557.737549,739.322449 558.012878,736.244019 
	C558.280640,733.249939 556.246216,731.326843 553.205688,730.079834 
	C548.443787,728.127014 544.285522,724.802856 538.578064,724.399780 
	C540.684204,719.828857 543.501221,720.334412 546.426941,721.557434 
	C551.591003,723.716309 556.720154,725.958618 562.739258,728.541626 
	C560.783875,724.464294 565.379150,721.400574 562.679565,717.949036 
	C560.329895,714.945007 558.119202,711.687134 554.330505,710.272156 
	C540.074890,704.948242 531.250977,694.416809 525.690247,680.677368 
	C523.514465,675.301453 519.356812,671.527466 515.279175,667.693787 
	C513.737610,668.820312 513.186707,671.135559 511.078186,670.271606 
	C508.796051,669.336609 509.753632,667.171326 509.649628,665.446533 
	C509.544800,663.708618 510.395874,662.247681 511.003510,660.697021 
	C514.869812,650.829712 523.188293,644.946228 531.105896,638.966797 
	C545.426453,628.151855 558.108582,616.223755 563.942688,598.579468 
	C564.562683,596.704346 565.726501,595.007751 566.650940,593.235107 
	C569.677429,587.431274 572.952759,581.892151 579.127563,578.732483 
	C581.566345,577.484619 582.965942,575.159973 584.000732,572.597534 
	C586.158020,567.255554 587.257874,561.775879 586.569885,555.144653 
M232.813751,646.656067 
	C254.809967,663.275452 276.806183,679.894775 299.297302,696.888000 
	C302.077576,688.320068 304.873596,680.620178 309.275208,673.759827 
	C312.009399,669.498352 311.609924,667.161499 307.368408,664.129944 
	C274.444031,640.597778 241.694244,616.821228 208.895691,593.113037 
	C203.749741,589.393311 203.806870,587.503357 209.242935,584.722778 
	C221.101471,578.657166 233.004547,572.678650 244.866135,566.619019 
	C251.152451,563.407593 257.390015,560.100708 264.200226,556.549866 
	C257.229523,548.807251 250.725113,541.925171 244.648300,534.684326 
	C241.727814,531.204407 239.404449,530.333801 235.057083,532.635010 
	C221.667908,539.722412 207.999313,546.283142 194.420715,553.011047 
	C188.834518,555.778931 187.318222,554.958435 186.623764,548.973877 
	C186.221542,545.507690 185.830307,542.040100 185.397858,538.577637 
	C182.515991,515.504150 178.742676,492.495270 177.079224,469.334656 
	C176.139236,456.247314 167.428040,449.843781 159.994644,441.178497 
	C155.898499,446.546143 151.123428,450.145569 146.082794,453.406952 
	C143.844284,454.855316 143.252350,456.598785 143.635101,459.308716 
	C145.330338,471.311188 146.814423,483.344574 148.273315,495.379120 
	C151.071167,518.458862 153.631912,541.569397 156.707840,564.611511 
	C157.282684,568.917603 155.857437,570.607971 152.435608,572.226440 
	C132.268585,581.764832 112.288712,591.711792 91.958893,600.885315 
	C85.847130,603.643127 84.361725,607.043823 83.866249,613.522583 
	C83.043510,624.280579 86.257095,631.798645 95.063118,637.974792 
	C98.835938,640.620911 101.188507,640.990173 105.124092,638.910522 
	C126.471611,627.629883 148.006866,616.704773 169.373474,605.459656 
	C173.291168,603.397766 176.089783,603.546570 179.701492,606.343689 
	C197.084290,619.806091 214.707352,632.958191 232.813751,646.656067 
M434.685455,704.130188 
	C440.521240,700.737183 446.357056,697.344177 452.245117,693.920776 
	C443.985504,682.921875 445.005402,672.720459 455.058136,663.943359 
	C460.198883,659.454956 465.681946,655.361023 470.942932,651.007507 
	C479.274445,644.112976 483.756866,635.466248 484.960938,624.473511 
	C487.208588,603.952209 492.326294,584.456726 510.067444,571.063049 
	C510.347504,570.851685 510.408295,570.349670 510.842285,569.375000 
	C507.341003,570.642578 504.449707,569.312561 501.455841,569.327026 
	C485.092499,569.405945 469.910583,564.914429 455.719055,557.003723 
	C453.289764,555.649536 451.630615,555.842712 449.389099,557.191833 
	C429.269867,569.301697 409.110565,581.345703 388.892639,593.289978 
	C386.345947,594.794495 385.715912,596.311890 386.149658,599.290344 
	C387.625336,609.423096 390.712677,619.079529 394.595764,628.442139 
	C399.856781,641.127014 399.810669,653.379211 392.917633,665.351746 
	C391.324036,668.119690 391.823730,670.145142 393.548401,672.580383 
	C399.902130,681.551819 406.032593,690.681091 412.347595,699.680420 
	C415.104095,703.608582 416.794861,709.790466 420.983154,710.812073 
	C425.489319,711.911133 429.615082,706.679199 434.685455,704.130188 
M392.613831,784.053711 
	C422.218353,767.024475 451.406433,749.201355 481.628235,733.348938 
	C494.068207,726.823792 499.197052,719.173157 496.699310,705.856873 
	C496.608734,705.373840 496.626801,704.850525 496.696411,704.360474 
	C497.192444,700.867981 495.859985,698.809509 492.378998,697.651184 
	C486.537994,695.707581 480.785614,693.472534 475.086609,691.138733 
	C472.475281,690.069275 470.351562,690.475891 468.026489,691.836609 
	C454.655701,699.661438 441.246429,707.420837 427.820953,715.151550 
	C425.970520,716.217102 424.342896,717.116577 425.462616,719.721313 
	C426.057281,721.104675 425.574188,722.427673 424.095428,723.009644 
	C422.746307,723.540527 421.443695,723.226501 420.496063,722.050720 
	C419.661102,721.014648 418.860535,719.946167 418.110046,718.847473 
	C410.591949,707.840942 403.152802,696.779724 395.540985,685.838562 
	C393.110626,682.345215 391.075439,678.496521 387.835205,675.584473 
	C384.980652,677.096802 383.952881,679.985596 381.833954,681.817810 
	C377.701660,685.390808 376.686859,690.663513 374.507111,695.283569 
	C371.514313,701.626831 378.196045,704.119690 380.041626,708.551270 
	C380.165741,708.849304 380.436859,709.084900 380.632599,709.354614 
	C386.211548,717.041809 391.805603,724.718201 397.356201,732.425842 
	C398.711670,734.307983 400.614380,736.526489 397.876221,738.454773 
	C395.051056,740.444336 393.797913,737.622620 392.437775,735.840820 
	C390.719727,733.590210 389.112183,731.255676 387.439117,728.970337 
	C381.880249,721.377075 376.313385,713.789734 370.767639,706.224670 
	C370.122803,706.666199 369.923309,706.727295 369.864746,706.853699 
	C366.925964,713.197021 363.943268,719.520935 361.083679,725.899963 
	C356.275818,736.625244 356.308990,736.640320 365.594238,743.556458 
	C365.861511,743.755554 366.137451,743.943176 366.402008,744.145691 
	C369.477600,746.500488 369.330688,748.866211 366.163727,750.876038 
	C362.367828,753.285034 358.656342,756.079346 354.505341,757.623230 
	C346.212158,760.707825 344.242981,767.434998 343.541656,774.934570 
	C343.253387,778.016968 343.947937,781.215637 344.378540,784.336060 
	C345.476807,792.295227 347.640320,799.869629 352.841553,806.929504 
	C366.053650,799.330078 379.015778,791.874451 392.613831,784.053711 
M447.801392,529.500061 
	C447.759796,518.185059 447.710693,506.870087 447.678894,495.555054 
	C447.648834,484.855194 437.846283,477.995605 427.822632,482.315002 
	C409.347107,490.276428 390.945770,498.446716 372.820282,507.167542 
	C364.217224,511.306763 359.893890,519.100708 360.533783,528.818420 
	C360.861420,533.794312 360.986481,538.786316 361.436005,543.741882 
	C361.802307,547.780334 361.184631,552.135315 364.049591,555.676575 
	C371.558929,564.958496 376.897217,575.451660 381.181702,586.525085 
	C381.599792,587.605652 381.805450,588.795044 383.120361,589.219604 
	C383.443726,589.182434 383.826843,589.245728 384.081940,589.093872 
	C404.519958,576.929810 424.945160,564.744202 445.381073,552.576538 
	C447.364258,551.395752 447.807770,549.598511 447.794525,547.472900 
	C447.759308,541.815430 447.795044,536.157593 447.801392,529.500061 
M77.385750,342.874908 
	C79.384140,331.943359 79.408203,320.849701 77.491875,310.062561 
	C74.556274,293.537872 68.148293,278.402832 54.439129,267.599609 
	C45.502010,260.556915 34.882637,260.774506 25.881289,267.676636 
	C20.271490,271.978149 16.817806,277.885834 14.186816,284.224365 
	C5.828145,304.361755 6.485667,324.819763 12.868137,345.256531 
	C16.396950,356.555878 22.071257,366.718048 31.476772,374.292603 
	C42.271751,382.986115 55.275074,381.861023 64.476006,371.522339 
	C71.546646,363.577393 75.287216,354.055542 77.385750,342.874908 
M337.079285,373.415710 
	C337.904510,373.521545 338.740295,373.575714 339.553345,373.741272 
	C347.010712,375.259521 354.691071,377.486145 357.924622,366.882874 
	C360.591248,369.291046 359.796448,371.508942 358.764709,373.257751 
	C353.573944,382.056091 344.509888,379.983887 336.400909,380.436127 
	C339.300018,391.366730 348.656311,394.775391 358.893372,393.323853 
	C363.076263,392.730713 367.095398,392.435547 371.205383,393.705872 
	C377.560425,395.670074 383.333038,391.696564 383.622742,384.984283 
	C384.035156,375.428680 385.614410,366.190674 389.348694,357.317902 
	C391.032532,353.317108 391.379089,348.969177 391.356934,344.617981 
	C391.271301,327.796661 385.023865,311.460876 387.798462,294.426422 
	C386.338104,297.618439 388.856171,301.790466 384.884552,304.339935 
	C381.656250,299.765991 382.138550,291.670502 385.834106,287.062775 
	C387.915710,284.467346 390.065338,281.917694 392.315979,279.468414 
	C397.838318,273.458679 397.468140,266.675323 395.260040,258.985474 
	C393.161102,261.822876 391.292084,264.488556 388.181671,264.809174 
	C383.170349,265.325684 381.891205,267.366913 382.979156,272.367279 
	C384.021973,277.160187 380.836456,282.093079 377.483459,282.599670 
	C376.867859,280.757629 377.413788,278.887451 377.987885,277.283905 
	C379.836884,272.119232 377.724609,268.894653 373.270386,266.747803 
	C369.236664,264.803650 365.215851,262.744019 360.427856,263.597961 
	C358.837738,263.881561 356.819489,263.972565 356.666443,261.539795 
	C356.522949,259.258148 358.382507,259.033997 360.054321,258.729156 
	C362.175964,258.342316 364.382294,258.181854 366.392487,257.471802 
	C370.420715,256.048950 371.387238,253.140625 369.421661,248.588196 
	C365.106171,250.109344 360.711090,251.484116 355.987946,251.298813 
	C353.458252,251.199539 353.239532,253.169128 353.234955,255.141190 
	C353.223724,259.969147 353.731567,264.883270 353.002502,269.603943 
	C352.010681,276.026031 350.749298,281.998199 358.749695,284.911896 
	C359.698334,285.257385 360.440247,286.514526 360.993408,287.507568 
	C361.574005,288.549927 361.769379,290.070099 360.526184,290.625549 
	C356.412231,292.463654 357.332581,296.076599 357.324463,299.267395 
	C357.302094,308.042053 356.418243,316.473816 350.897522,323.877930 
	C344.462769,332.507904 344.686646,334.503296 352.931915,341.673340 
	C357.237274,345.417236 360.322266,349.785156 361.807312,355.224243 
	C362.477448,357.678619 363.206573,360.414246 360.054840,362.184204 
	C357.124298,360.021149 356.585846,356.739594 355.400177,353.923950 
	C352.262634,346.473053 346.875885,341.250977 339.740692,337.839783 
	C335.771942,335.942383 331.576843,334.283173 326.318298,336.188995 
	C331.283691,344.382263 331.882019,353.048706 331.015320,361.968842 
	C330.839783,363.775513 331.254456,365.635529 331.124725,367.451508 
	C330.855072,371.225555 332.631897,372.999817 337.079285,373.415710 
M336.526978,301.015106 
	C341.275970,294.424103 344.455017,287.132385 345.725006,279.121429 
	C348.018402,264.654999 347.596924,250.272598 343.528961,236.128143 
	C340.626953,226.037552 335.892487,216.907303 328.024841,209.775192 
	C315.864380,198.751541 301.968964,200.446716 292.562134,213.854645 
	C286.771637,222.108139 283.771759,231.413208 282.808014,241.298141 
	C280.630188,263.635468 284.421417,284.445343 299.593689,302.019501 
	C310.886475,315.100067 325.107239,314.897797 336.526978,301.015106 
M163.807800,305.499786 
	C163.913177,286.676361 159.473877,269.230103 147.855408,254.077774 
	C138.358032,241.691681 124.774971,237.712082 114.342697,244.417099 
	C102.892403,251.776428 98.452545,263.404846 95.557373,275.923523 
	C96.428070,276.404114 96.829239,276.734528 97.286835,276.861267 
	C101.927551,278.146667 106.564583,279.448914 111.227692,280.649139 
	C119.132492,282.683685 121.149940,285.054626 121.034317,293.113068 
	C120.990005,296.201080 121.945892,297.552063 125.160385,297.935150 
	C129.606567,298.465088 132.371674,301.772339 131.874802,305.879486 
	C130.653259,315.976746 130.437576,326.511932 121.834953,334.227936 
	C117.704559,337.932617 114.867256,343.011078 109.656967,345.525452 
	C121.318382,362.676178 140.627838,363.213837 152.230530,347.012421 
	C160.864365,334.956543 164.022400,321.154633 163.807800,305.499786 
M273.287537,632.170227 
	C284.494812,640.246521 295.707916,648.314758 306.907379,656.401917 
	C315.321960,662.477966 315.076874,662.286987 321.557404,654.664368 
	C324.799622,650.850769 324.680786,647.810303 322.682861,643.505676 
	C316.225952,629.593811 305.931274,618.330383 297.451782,605.822693 
	C296.751099,604.789185 295.680054,604.438049 294.458649,604.276245 
	C289.888214,603.670593 287.157349,600.821289 285.149170,596.858093 
	C280.180206,587.051453 275.839996,576.974182 271.754364,566.777710 
	C271.036072,564.985046 270.873138,562.842834 268.417664,561.402161 
	C250.650055,570.384094 232.640564,579.488281 213.637360,589.094788 
	C233.945007,603.753906 253.330582,617.747437 273.287537,632.170227 
M199.503723,455.973022 
	C189.017517,444.338806 178.531311,432.704590 167.190735,420.122467 
	C165.838562,424.912964 165.218399,428.002472 164.083252,430.889526 
	C162.863022,433.992981 163.705795,436.166107 165.834473,438.522308 
	C197.333862,473.389038 228.768402,508.314423 260.201904,543.240662 
	C261.332520,544.496887 262.294922,545.904541 264.001923,548.097351 
	C263.888397,536.336853 262.726410,526.590637 259.169159,517.031677 
	C255.243576,506.482941 250.788406,496.121399 247.814590,485.181366 
	C246.102478,478.882812 243.115143,472.850861 240.698334,466.759613 
	C237.793137,459.437500 231.646271,453.647644 224.686478,449.345886 
	C213.494705,442.428375 202.251450,435.593811 191.003067,428.768494 
	C187.452057,426.613831 183.519241,425.867554 178.722717,425.637939 
	C180.123352,427.346680 181.026733,428.511139 181.994202,429.619720 
	C195.910446,445.564789 210.203690,461.164337 224.874359,476.418701 
	C226.256668,477.855957 227.555237,479.380188 228.810211,480.930817 
	C229.482071,481.761047 229.667145,482.854187 228.929199,483.691284 
	C227.980698,484.767242 226.800095,484.488373 225.825363,483.646301 
	C224.693115,482.668182 223.611298,481.622284 222.583817,480.533844 
	C215.034668,472.536804 207.504578,464.521790 199.503723,455.973022 
M369.205109,226.875565 
	C369.249054,227.964905 368.313385,229.115585 369.701080,230.437622 
	C372.354401,229.657349 375.173920,228.715240 378.050140,228.001953 
	C390.409454,224.936981 398.635590,231.055756 399.355652,243.836426 
	C399.561249,247.485718 400.111877,251.054306 400.783295,254.656006 
	C402.746124,265.185883 404.890747,275.858154 395.087463,284.232025 
	C394.030579,285.134796 393.435608,286.747894 392.976166,288.146393 
	C391.925568,291.344482 390.998871,295.141205 392.933777,297.764709 
	C395.019928,300.593292 398.980896,299.804016 402.305420,299.361206 
	C414.873260,297.687073 422.398102,289.863403 427.281708,278.838562 
	C434.376160,262.822815 434.355927,246.163971 431.120789,229.424576 
	C428.571960,216.236069 422.871429,204.409988 412.591614,195.388062 
	C401.484161,185.639801 387.451508,187.565231 378.835236,199.645920 
	C373.173828,207.583664 370.497009,216.585403 369.205109,226.875565 
M199.339813,543.800293 
	C211.355774,537.833008 223.371719,531.865784 236.161514,525.514221 
	C218.174103,505.558167 200.783936,486.264709 183.393768,466.971283 
	C183.103867,467.169373 182.813965,467.367462 182.524063,467.565521 
	C185.735809,493.797272 188.947540,520.028992 192.144684,546.141602 
	C195.312042,546.294739 196.871735,544.863220 199.339813,543.800293 
M175.161743,298.442627 
	C185.044037,293.569122 195.252258,289.636536 206.172882,287.798462 
	C207.844162,287.517181 209.674286,287.508148 209.739822,285.200012 
	C209.985062,276.563629 209.634705,268.230957 201.837616,262.219086 
	C194.911865,256.878998 187.026215,253.820465 178.611420,252.588776 
	C171.371002,251.528961 164.139679,252.618713 157.223267,256.785522 
	C163.055130,266.627777 166.450363,276.917725 168.748627,288.600891 
	C170.467392,285.911774 171.715012,284.182434 172.731674,282.326538 
	C175.526382,277.224915 178.057373,271.971405 181.019302,266.971436 
	C182.974823,263.670410 185.733261,261.285950 191.279175,262.925568 
	C185.875748,266.290405 182.158646,269.908813 180.858917,275.057129 
	C179.061096,282.178314 175.559860,288.283173 170.968140,293.857086 
	C169.089630,296.137390 168.729401,298.382843 170.368484,301.090179 
	C171.933060,300.202728 173.224472,299.470245 175.161743,298.442627 
M330.607910,314.353119 
	C323.153625,318.359528 315.398804,318.067322 307.345825,316.015076 
	C312.840363,319.121246 317.452057,323.043732 320.888763,328.255585 
	C321.468872,329.135315 322.369324,329.686768 323.431885,329.572845 
	C328.774628,329.000244 333.940430,330.235809 339.266357,331.386871 
	C340.569702,328.379456 342.359375,326.045258 344.542023,323.956512 
	C350.148895,318.590820 352.377472,311.784180 352.689484,304.202850 
	C352.859985,300.059509 352.173218,295.883484 353.180115,291.771179 
	C353.614471,289.997070 354.404938,287.829956 352.050720,287.052795 
	C349.258698,286.131134 349.464417,288.969238 348.848999,290.430603 
	C344.925873,299.746521 340.317108,308.518768 330.607910,314.353119 
M80.337395,297.785187 
	C82.412926,304.646881 83.833786,311.628937 84.315170,318.796143 
	C84.592384,322.923279 87.661011,325.360016 90.980835,323.368164 
	C95.853920,320.444275 101.067543,318.082764 106.589554,314.849884 
	C101.537704,312.855194 97.399918,310.067139 97.142792,305.632629 
	C96.819809,300.062469 95.756592,295.485809 91.242416,292.026215 
	C91.150665,291.955902 91.406174,291.432465 91.571487,290.880768 
	C93.539536,289.876251 95.543922,290.579926 96.965042,291.901703 
	C100.364052,295.063049 104.466789,295.922516 108.819138,296.269440 
	C110.959846,296.440033 114.042999,298.020477 114.440758,294.505463 
	C114.814087,291.206390 116.420532,286.717621 111.186371,285.332520 
	C106.693604,284.143616 102.117790,283.189178 97.524117,282.489349 
	C94.526077,282.032562 92.044823,283.438263 90.224152,285.944153 
	C87.860268,289.197784 85.340912,292.325897 81.459900,293.891266 
	C79.818268,294.553375 79.667732,295.646362 80.337395,297.785187 
M363.110443,240.451416 
	C361.842987,239.140610 360.577271,237.828094 359.307678,236.519333 
	C356.613861,233.742294 353.661804,232.544754 349.792786,235.066711 
	C350.265564,237.338074 351.051971,239.580246 351.133759,241.847824 
	C351.277618,245.836761 353.262878,246.905075 356.927887,246.722809 
	C360.147522,246.562668 363.147614,245.835281 366.123169,244.721817 
	C371.096497,242.860764 374.103485,244.579941 375.156219,249.773453 
	C375.977142,253.823273 374.557983,257.236755 371.933838,260.235321 
	C377.571075,263.552338 386.249634,262.199646 390.266724,257.601135 
	C395.130463,252.033340 394.864746,242.701813 389.665161,236.474609 
	C385.459045,231.437225 377.907013,231.576447 368.105560,236.889175 
	C369.544434,241.421585 367.653687,242.284271 363.110443,240.451416 
M121.657982,365.939941 
	C121.613846,364.777771 121.747757,363.418365 120.639618,362.752930 
	C115.050270,359.396454 109.840126,355.505524 104.074837,349.983337 
	C105.822609,361.347473 105.674690,371.261658 108.272926,381.241180 
	C111.452538,379.067169 113.976303,376.836182 116.902802,375.464478 
	C120.841545,373.618347 122.282661,370.867920 121.657982,365.939941 
M358.585022,746.378418 
	C357.206177,745.245911 356.027557,743.759521 353.810150,743.714905 
	C351.647156,746.398987 351.146118,749.718506 350.318024,752.988525 
	C353.228973,750.847046 357.398407,750.694275 358.585022,746.378418 
z"/>
<path fill="#000000" opacity="1.000000" stroke="none" 
	d="
M311.133728,360.408691 
	C304.291199,361.984863 297.720978,364.736908 292.452454,357.499695 
	C289.172791,368.348999 285.635712,370.947296 274.492035,371.325531 
	C268.174255,371.539978 265.435089,373.795837 264.260986,379.841034 
	C263.446014,384.037201 261.681641,387.753235 258.699188,390.818787 
	C256.485535,393.094147 253.933105,394.166290 250.857864,392.677124 
	C250.709518,390.647919 252.155853,390.145142 253.220062,389.508026 
	C257.600189,386.885742 259.752625,383.264557 259.663269,377.989655 
	C259.585175,373.375702 263.917816,368.958435 269.070831,367.698212 
	C270.674133,367.306061 272.376984,367.004974 274.009338,367.098389 
	C285.504425,367.756317 287.914551,358.912506 286.012665,350.314514 
	C285.288574,347.041077 283.897858,344.019318 282.385803,341.034851 
	C281.385895,339.061279 280.135925,337.065582 280.693848,333.831390 
	C286.389496,338.148102 289.212860,343.424011 290.963013,349.366669 
	C292.385162,354.195618 297.257111,357.840302 302.005859,356.494934 
	C308.639771,354.615479 314.760559,354.193176 320.306946,359.060913 
	C321.348816,359.975342 323.039001,358.582611 324.078003,360.304230 
	C323.138336,363.782379 320.705627,363.774139 318.056427,362.399048 
	C315.970276,361.316193 314.056030,359.974976 311.133728,360.408691 
z"/>
<path fill="#000000" opacity="1.000000" stroke="none" 
	d="
M253.555084,306.822266 
	C254.761139,315.593506 252.296524,319.063293 244.299637,320.227264 
	C232.507782,321.943665 222.423187,326.463959 215.114029,336.432983 
	C212.392776,340.144531 208.758652,343.211029 205.404434,346.429565 
	C196.138123,355.321045 184.663406,354.964020 173.069122,353.946960 
	C172.616776,353.907257 172.166870,353.536194 171.773178,353.242584 
	C171.526810,353.058868 171.387955,352.730927 171.133331,352.372711 
	C171.515518,349.424683 173.844269,349.306091 175.961151,349.539490 
	C192.451111,351.357513 204.175766,344.248505 212.333130,330.348175 
	C216.140579,323.860199 222.460815,321.011230 229.130005,318.653076 
	C234.143326,316.880463 239.199875,315.286224 244.473907,314.430450 
	C247.583252,313.925964 250.240738,312.904144 250.210831,308.894196 
	C250.198166,307.194092 250.803955,305.410645 253.555084,306.822266 
z"/>
<path fill="#000000" opacity="1.000000" stroke="none" 
	d="
M197.321289,411.912476 
	C198.532974,413.844421 198.583008,415.443024 196.751251,416.459259 
	C194.812973,417.534607 193.078064,416.558655 191.847290,415.171783 
	C188.967773,411.927063 187.870300,407.927277 187.708282,403.669189 
	C187.625763,401.500366 187.603668,399.359039 186.763550,397.293823 
	C185.450150,394.065002 183.780457,391.665833 179.667114,393.117676 
	C178.606705,393.491943 177.359940,393.385834 176.196945,393.409302 
	C174.838852,393.436798 173.341431,393.433655 173.267838,391.557953 
	C173.206512,389.994598 174.508301,389.830780 175.683014,389.616852 
	C181.452194,388.566162 186.547897,386.482269 189.487167,380.899780 
	C191.856689,376.399353 190.859818,374.434753 185.828415,374.227020 
	C181.937988,374.066467 178.212708,373.393524 174.906036,371.246674 
	C173.443039,370.296844 172.104019,368.841919 173.306381,367.116394 
	C174.452209,365.471954 176.133438,366.495422 177.199509,367.521942 
	C180.762802,370.953217 184.939209,369.825836 189.010208,369.259125 
	C193.123886,368.686462 197.204117,367.877319 201.307831,367.227631 
	C203.206390,366.927063 204.987305,367.190155 206.209274,368.914185 
	C207.051971,370.103119 207.313385,371.351898 206.279800,372.570770 
	C205.361557,373.653625 204.178680,373.763824 203.219177,372.813416 
	C200.702393,370.320557 198.371292,371.728149 195.844910,372.934906 
	C194.915527,384.207214 204.327515,381.875122 210.293854,383.505219 
	C210.534088,385.895996 209.212051,386.236206 207.847672,386.278564 
	C204.692947,386.376587 201.391724,386.850525 198.488113,385.392853 
	C193.587601,382.932770 190.451050,384.690643 187.887054,389.787048 
	C192.348099,393.818420 192.605453,399.601929 192.297943,405.475311 
	C192.113953,408.988831 194.218414,410.537323 197.321289,411.912476 
z"/>
<path fill="#000000" opacity="1.000000" stroke="none" 
	d="
M87.521866,403.477509 
	C90.585609,414.749268 96.786652,422.907806 107.372070,427.400604 
	C107.978233,427.657867 108.609314,427.981934 109.068932,428.436554 
	C110.782486,430.131500 115.297447,430.314392 113.765846,433.627136 
	C112.354042,436.680786 108.056053,436.212463 105.663902,434.879730 
	C96.872635,429.981842 88.627457,424.052826 85.445740,413.906555 
	C83.322784,407.136627 82.395042,399.990997 80.959244,393.007965 
	C80.827217,392.365875 80.806824,391.674377 80.879257,391.021912 
	C81.058220,389.410034 80.944099,387.238617 83.086075,387.159210 
	C85.376595,387.074249 85.344627,389.261230 85.298805,390.877808 
	C85.178940,395.107239 86.441528,399.069519 87.521866,403.477509 
z"/>
<path fill="#000000" opacity="1.000000" stroke="none" 
	d="
M247.967941,342.888184 
	C243.642151,344.380188 241.352417,347.121185 240.478394,351.221924 
	C240.145782,352.782440 239.604492,354.965546 237.435349,354.318695 
	C235.127502,353.630524 235.665054,351.440796 236.199753,349.661011 
	C237.767975,344.440948 242.022690,341.742035 246.352707,339.237518 
	C251.091736,336.496429 255.971954,334.000458 260.387299,330.726105 
	C263.839233,328.166107 265.982391,325.478149 262.185211,321.405975 
	C261.166870,320.313873 260.125732,318.686584 261.686523,316.437775 
	C265.672943,319.071533 268.291565,322.428162 268.011658,327.303558 
	C267.630066,333.949493 263.870605,339.129547 258.946655,340.248016 
	C255.398651,341.053955 251.721176,341.297180 247.967941,342.888184 
z"/>
<path fill="#000000" opacity="1.000000" stroke="none" 
	d="
M224.144226,397.410522 
	C222.882919,394.731689 224.932846,394.802521 226.222305,394.477081 
	C232.700455,392.842224 234.843475,388.231262 234.637756,382.145996 
	C234.436096,376.181427 233.964447,370.226410 233.698074,364.263306 
	C233.632004,362.784027 233.748917,361.257507 234.054703,359.810394 
	C234.447723,357.950531 235.375702,355.908142 237.573761,356.398010 
	C240.245667,356.993469 239.393814,359.269928 238.533508,360.833679 
	C235.522125,366.307312 239.178253,371.174042 239.852737,376.274292 
	C240.416016,380.533600 241.727188,384.585632 239.840363,388.917480 
	C236.903564,395.659851 232.118225,398.539764 224.144226,397.410522 
z"/>
<path fill="#000000" opacity="1.000000" stroke="none" 
	d="
M140.703552,417.142090 
	C137.558273,417.826874 134.709717,419.547180 132.030914,416.737000 
	C132.397034,416.176270 132.579468,415.522064 132.931137,415.412872 
	C142.596634,412.411591 147.309448,404.633301 151.466339,396.306305 
	C151.689087,395.860107 151.894455,395.394562 152.186600,394.995605 
	C153.066162,393.794525 153.998550,392.124115 155.681183,392.810181 
	C157.825607,393.684540 157.582947,395.941986 157.009094,397.611023 
	C154.117111,406.022217 149.844971,413.389343 140.703552,417.142090 
z"/>
<path fill="#000000" opacity="1.000000" stroke="none" 
	d="
M163.255127,349.221313 
	C165.661392,347.670166 167.986633,344.106476 170.184433,346.316681 
	C172.733261,348.879852 169.164719,351.306152 167.445999,353.242950 
	C162.672516,358.622253 157.133682,363.136169 150.619995,366.282227 
	C148.139053,367.480469 145.548080,368.789429 141.678558,367.652039 
	C148.325241,360.428070 156.909241,356.340881 163.255127,349.221313 
z"/>
<path fill="#000000" opacity="1.000000" stroke="none" 
	d="
M277.632843,321.495728 
	C283.662628,327.402740 290.949829,325.595184 297.789398,325.644257 
	C301.208466,325.668793 304.030121,326.419098 305.989838,329.335907 
	C306.637512,330.299805 307.279358,331.354218 305.593292,333.086884 
	C301.766083,327.996338 296.776154,330.789368 291.868134,331.144836 
	C283.420990,331.756622 275.627472,327.124084 273.843842,320.945984 
	C275.152832,319.572693 276.214325,320.799683 277.632843,321.495728 
z"/>
<path fill="#000000" opacity="1.000000" stroke="none" 
	d="
M270.816895,313.355896 
	C266.612762,313.675598 263.024963,313.298584 260.360687,310.179718 
	C259.031616,308.623901 258.090942,306.901764 259.843933,303.776581 
	C264.097504,310.449036 270.206299,308.360199 276.129608,308.204803 
	C280.400360,308.092743 285.093781,308.177490 287.762085,313.390747 
	C282.190063,312.764709 276.715118,313.064758 270.816895,313.355896 
z"/>
<path fill="#000000" opacity="1.000000" stroke="none" 
	d="
M274.630737,416.270203 
	C270.071259,416.813782 266.682556,415.414246 264.173889,412.122589 
	C262.739502,410.240509 260.686035,409.313660 258.377441,408.300964 
	C260.661896,404.274261 263.580200,404.756378 265.657196,407.309601 
	C270.204254,412.899231 275.003143,412.536102 280.536072,409.188629 
	C282.952118,407.726929 285.632874,406.768066 288.647308,411.342072 
	C282.131287,409.745453 279.785370,415.458313 274.630737,416.270203 
z"/>
<path fill="#000000" opacity="1.000000" stroke="none" 
	d="
M223.649765,358.136597 
	C219.036484,358.972748 215.165970,360.260956 211.658524,363.157318 
	C208.438446,365.816376 204.368027,366.153015 200.435562,364.145020 
	C198.940582,363.381653 198.220474,362.058502 198.746414,360.429016 
	C199.358398,358.532990 200.934875,358.391571 202.339264,359.289917 
	C204.368820,360.588135 206.098175,359.823029 207.957062,359.058685 
	C211.933655,357.423645 215.918182,355.756378 220.195679,355.097015 
	C222.250275,354.780304 224.777390,354.286224 223.649765,358.136597 
z"/>
<path fill="#000000" opacity="1.000000" stroke="none" 
	d="
M234.756927,402.963135 
	C233.774445,401.269196 233.379883,399.916016 234.525497,398.689514 
	C235.827805,398.222260 236.763336,398.667999 237.374512,399.481842 
	C241.599701,405.107941 247.450089,405.265472 253.602448,404.354645 
	C255.066742,404.137878 256.777008,403.295380 257.427155,405.281616 
	C258.149414,407.488129 256.272095,408.213409 254.671722,408.616119 
	C247.024902,410.540527 240.783447,412.067810 234.756927,402.963135 
z"/>
<path fill="#000000" opacity="1.000000" stroke="none" 
	d="
M307.260712,386.424957 
	C306.549561,389.816559 304.605499,388.580963 303.227997,387.437256 
	C302.154541,386.545929 301.245209,385.068817 300.943420,383.701843 
	C299.455231,376.960449 298.246979,370.150024 292.391785,364.379120 
	C298.508484,364.533813 301.422760,367.492523 303.268036,373.451355 
	C304.573883,377.668182 303.714417,382.537567 307.260712,386.424957 
z"/>
<path fill="#000000" opacity="1.000000" stroke="none" 
	d="
M225.811676,377.075226 
	C222.280182,378.161987 219.118362,379.625458 215.799347,379.087250 
	C211.850845,378.446960 209.076447,376.182373 208.646942,371.097412 
	C215.331467,378.238403 222.941544,372.399811 230.155731,372.307129 
	C229.757767,375.809143 227.725342,376.097473 225.811676,377.075226 
z"/>
<path fill="#000000" opacity="1.000000" stroke="none" 
	d="
M317.148682,344.152161 
	C314.727661,340.219574 310.156586,338.743683 308.005157,334.403473 
	C313.126617,332.379181 315.185150,336.141205 317.618378,338.621582 
	C320.707550,341.770660 322.562927,345.398315 320.558929,350.155945 
	C316.872711,349.322998 318.250336,346.297729 317.148682,344.152161 
z"/>
<path fill="#000000" opacity="1.000000" stroke="none" 
	d="
M219.189362,410.362732 
	C214.957703,410.357880 211.691162,409.422424 209.796768,405.750977 
	C211.309998,404.215424 212.752228,404.835419 214.141006,405.233246 
	C217.970093,406.330017 221.766220,407.331116 225.787735,405.984650 
	C226.997757,405.579529 228.639648,405.477112 229.072708,407.188690 
	C229.556046,409.098877 228.098831,409.952393 226.559631,410.126373 
	C224.273071,410.384796 221.947968,410.302338 219.189362,410.362732 
z"/>
<path fill="#000000" opacity="1.000000" stroke="none" 
	d="
M327.052673,384.258728 
	C330.011230,384.989166 331.197083,386.290588 329.745239,389.244690 
	C325.112518,388.157410 320.441406,386.641174 315.957825,389.902466 
	C313.936981,387.066986 315.277161,385.686707 317.434753,384.661987 
	C320.425079,383.241821 323.553375,383.561371 327.052673,384.258728 
z"/>
<path fill="#000000" opacity="1.000000" stroke="none" 
	d="
M289.544617,395.502869 
	C287.213776,396.769836 285.218994,397.875641 282.240082,399.527008 
	C282.240845,394.076569 285.713074,392.698456 288.775391,391.246735 
	C293.217255,389.141052 294.360962,389.426392 296.692261,392.481598 
	C294.774139,394.281189 292.017761,394.091034 289.544617,395.502869 
z"/>
<path fill="#000000" opacity="1.000000" stroke="none" 
	d="
M113.583359,465.206909 
	C110.882080,462.815704 108.158806,463.014862 105.315720,463.863342 
	C103.958641,464.268311 102.506248,464.356537 102.079735,462.626526 
	C101.593246,460.653290 102.989021,459.936951 104.621262,459.769379 
	C108.496773,459.371399 112.253273,459.864777 115.772644,461.637115 
	C117.166031,462.338867 118.643967,463.346039 117.975357,465.044495 
	C117.049545,467.396332 115.352997,466.265930 113.583359,465.206909 
z"/>
<path fill="#000000" opacity="1.000000" stroke="none" 
	d="
M332.348328,736.177246 
	C330.051331,741.783813 327.871460,747.084595 323.627930,751.027100 
	C320.590607,753.849182 317.140411,756.139587 311.261688,752.899170 
	C331.510101,740.562195 332.416504,719.502747 337.178284,699.537537 
	C340.249969,702.048157 340.085999,704.499329 339.767090,706.869629 
	C338.432465,716.789307 336.094635,726.465332 332.348328,736.177246 
z"/>
<path fill="#000000" opacity="1.000000" stroke="none" 
	d="
M305.767334,828.251587 
	C304.980927,828.119446 304.487701,828.010559 304.039642,827.803772 
	C293.217377,822.808716 292.337189,820.212280 298.337921,810.038696 
	C300.528412,806.324890 301.848328,802.091858 304.896912,798.897278 
	C305.301697,798.473083 305.975952,798.306091 306.624115,797.968628 
	C308.217773,800.844971 306.458099,802.965088 305.626068,805.178406 
	C305.042542,806.730591 304.314819,808.247803 303.485535,809.684937 
	C300.043640,815.649414 299.417603,821.186951 305.576324,825.925354 
	C306.216431,826.417786 307.427124,827.140076 305.767334,828.251587 
z"/>
<path fill="#000000" opacity="1.000000" stroke="none" 
	d="
M356.266541,640.323669 
	C361.478943,633.496521 367.006592,627.251526 367.262085,618.662170 
	C370.399933,618.513916 370.635864,620.145386 370.818512,621.574463 
	C371.641754,628.014832 360.387634,644.531921 353.451935,646.793701 
	C353.085724,644.117310 355.099976,642.565857 356.266541,640.323669 
z"/>
<path fill="#000000" opacity="1.000000" stroke="none" 
	d="
M371.918213,666.991577 
	C375.961395,668.339539 375.117462,670.180359 372.676971,671.813293 
	C371.830750,672.379456 370.397186,672.371338 369.296814,672.202393 
	C364.021332,671.392822 357.518402,659.704529 359.390503,654.098389 
	C362.641693,655.452332 363.424835,658.735718 365.097595,661.214111 
	C366.777374,663.703003 368.078400,666.509033 371.918213,666.991577 
z"/>
<path fill="#000000" opacity="1.000000" stroke="none" 
	d="
M339.278564,682.081055 
	C338.986786,685.923279 341.491028,689.604919 338.462463,692.880676 
	C335.026245,689.312073 333.071869,676.535461 335.454163,672.675476 
	C339.162598,674.681213 337.985291,678.718872 339.278564,682.081055 
z"/>
<path fill="#000000" opacity="1.000000" stroke="none" 
	d="
M380.853882,883.835327 
	C378.777802,881.736023 375.685974,881.712158 373.877136,878.932983 
	C377.578796,876.684937 380.601349,877.741516 382.924744,880.541443 
	C384.206909,882.086731 385.030243,884.576050 380.853882,883.835327 
z"/>
<path fill="#000000" opacity="1.000000" stroke="none" 
	d="
M382.308472,451.732117 
	C384.270752,452.123291 385.662201,452.614685 385.196045,454.915405 
	C356.259521,457.109497 329.391663,464.687775 308.046783,486.294373 
	C305.313049,484.014252 305.121063,481.601868 307.049896,479.222992 
	C308.603638,477.306732 310.373962,475.375000 312.448059,474.101196 
	C333.765900,461.009125 356.522736,452.270966 382.308472,451.732117 
z"/>
<path fill="#000000" opacity="1.000000" stroke="none" 
	d="
M350.191650,441.259216 
	C340.103943,446.778503 330.174103,451.830017 321.189209,458.506561 
	C316.892334,461.699615 312.983490,465.251343 309.416992,469.224121 
	C308.439636,470.312805 307.249542,471.655273 305.590881,470.708344 
	C303.767120,469.667084 304.290802,467.814758 304.678284,466.213562 
	C305.294434,463.667236 307.060120,461.809204 308.971924,460.228180 
	C323.511505,448.204163 340.117523,440.004456 357.913544,434.059723 
	C358.623993,433.822418 359.482910,434.029480 360.982819,434.029480 
	C358.144653,438.153961 353.812500,438.881805 350.191650,441.259216 
z"/>
<path fill="#000000" opacity="1.000000" stroke="none" 
	d="
M298.815948,502.688232 
	C296.339142,503.993469 294.103638,504.570892 293.179474,501.658081 
	C292.386963,499.160278 294.433960,498.041077 296.443054,497.518921 
	C310.662415,493.823395 324.451202,495.320679 337.823456,501.200226 
	C339.022491,501.727386 340.386597,502.488342 339.917511,504.158142 
	C339.422943,505.918427 337.849609,506.262146 336.299774,506.090881 
	C332.317749,505.650818 328.510834,504.455597 324.697388,503.260742 
	C316.272827,500.621063 307.753357,500.240082 298.815948,502.688232 
z"/>
<path fill="#000000" opacity="1.000000" stroke="none" 
	d="
M512.533691,629.577759 
	C523.618713,622.271057 527.286499,609.644165 534.862122,599.625000 
	C537.450195,602.401917 536.601379,604.739380 535.666382,606.715515 
	C530.330933,617.991638 522.895020,627.597534 512.569336,634.785522 
	C511.627655,635.441101 510.551697,635.936584 509.482330,636.368164 
	C507.919159,636.998962 506.077667,637.688477 505.175110,635.631470 
	C504.322998,633.689453 506.216583,633.198486 507.479248,632.488953 
	C509.067657,631.596313 510.644653,630.683350 512.533691,629.577759 
z"/>
<path fill="#000000" opacity="1.000000" stroke="none" 
	d="
M555.862000,544.666138 
	C556.403687,548.385010 556.865967,551.744080 555.250671,554.847656 
	C554.057434,557.140320 552.747559,559.599304 548.873596,558.419312 
	C549.674988,554.270630 553.532898,551.426147 552.767822,546.832764 
	C552.097229,542.806580 548.545227,539.767700 548.813965,534.949280 
	C553.957336,536.499512 554.762451,540.438782 555.862000,544.666138 
z"/>
<path fill="#000000" opacity="1.000000" stroke="none" 
	d="
M562.966553,573.044983 
	C565.692932,575.167297 568.168762,577.036621 570.958008,579.142578 
	C568.775085,582.086121 566.372314,581.473572 563.929260,580.141113 
	C558.506470,577.183533 554.547180,570.446655 555.512573,565.635315 
	C559.347229,566.639709 560.123474,570.665222 562.966553,573.044983 
z"/>
<path fill="#000000" opacity="1.000000" stroke="none" 
	d="
M550.776123,718.152466 
	C549.661865,716.269958 550.118958,715.344177 551.954346,715.330872 
	C554.910767,715.309509 556.816528,718.339905 555.996948,721.786682 
	C553.505981,721.902771 552.492249,719.793152 550.776123,718.152466 
z"/>
<path fill="#000000" opacity="1.000000" stroke="none" 
	d="
M537.341919,585.968262 
	C538.302002,588.696411 538.787903,591.008606 536.860718,593.752502 
	C534.391541,590.284607 533.624512,587.034668 534.186829,583.431458 
	C536.289490,583.006409 536.681091,584.401428 537.341919,585.968262 
z"/>
<path fill="#000000" opacity="1.000000" stroke="none" 
	d="
M402.641754,505.564880 
	C409.726471,502.531586 416.462769,499.649078 423.195801,496.758850 
	C425.094025,495.944061 427.170319,495.028595 428.414307,497.470978 
	C429.864288,500.317688 427.460571,501.377777 425.515320,502.227966 
	C415.445160,506.629333 405.387482,511.069061 395.211090,515.214783 
	C384.931061,519.402710 379.476654,526.507324 380.173828,537.908081 
	C380.386902,541.392944 380.214600,544.904785 380.139404,548.402588 
	C380.097504,550.351746 379.598907,552.176697 377.214264,552.321289 
	C374.653870,552.476562 374.226898,550.491272 374.169647,548.622314 
	C373.965729,541.963074 373.660889,535.251038 374.962341,528.692871 
	C376.697479,519.949341 382.639893,514.537048 390.378235,510.885071 
	C394.291595,509.038239 398.317200,507.429230 402.641754,505.564880 
z"/>
<path fill="#000000" opacity="1.000000" stroke="none" 
	d="
M47.757900,371.668091 
	C57.690311,363.212708 61.483471,352.041870 62.413025,340.037109 
	C63.572643,325.061096 62.991058,310.056915 58.086445,295.602844 
	C54.359547,284.619537 47.505978,276.466888 36.320000,272.420319 
	C34.808968,271.873688 32.568390,271.436462 33.251427,269.285461 
	C34.027420,266.841736 36.154865,267.785675 37.890396,268.401062 
	C52.939121,273.737274 60.650276,285.394745 63.963596,300.109650 
	C67.603447,316.274750 68.864983,332.675293 65.284218,349.118134 
	C63.062920,359.318298 58.625523,368.280884 50.556400,375.154663 
	C49.008694,376.473114 47.075676,378.937103 45.118607,376.560669 
	C43.326275,374.384308 46.229286,373.255646 47.757900,371.668091 
z"/>
<path fill="#000000" opacity="1.000000" stroke="none" 
	d="
M372.855988,330.538879 
	C373.395966,337.138092 373.742401,343.293549 372.325165,349.379547 
	C372.025940,350.664520 371.618439,351.952362 371.052063,353.139252 
	C370.453613,354.393341 369.424866,355.447479 367.891937,354.981262 
	C366.210205,354.469757 366.385986,352.941467 366.665192,351.631012 
	C367.391815,348.221039 368.229889,344.834961 369.005219,341.435211 
	C370.421051,335.226746 369.565430,329.221802 367.371765,323.334778 
	C366.697021,321.524078 365.523529,319.700745 367.603912,317.420746 
	C372.260040,320.539124 371.738159,325.663788 372.855988,330.538879 
z"/>
<path fill="#000000" opacity="1.000000" stroke="none" 
	d="
M333.118378,263.993713 
	C332.831818,251.503830 332.478455,239.547867 327.113983,228.393631 
	C323.276917,220.415314 317.187317,215.200256 308.825043,212.517883 
	C307.718475,212.162949 306.608978,211.814514 305.515656,211.421753 
	C304.257263,210.969696 303.547760,210.100815 303.999939,208.740753 
	C304.398560,207.541824 305.540283,207.552719 306.512299,207.684448 
	C311.566223,208.369339 316.109497,210.380478 320.192657,213.367691 
	C330.519287,220.922546 334.464081,232.002625 336.075134,243.946701 
	C337.923309,257.648682 338.727264,271.478668 335.221100,285.091003 
	C332.756073,294.661194 328.134033,303.022369 320.061554,309.119324 
	C319.032837,309.896301 317.896179,311.011292 316.606812,309.545685 
	C315.316711,308.079254 315.874634,306.743439 317.214966,305.690033 
	C330.684448,295.103821 333.097443,280.261353 333.118378,263.993713 
z"/>
<path fill="#000000" opacity="1.000000" stroke="none" 
	d="
M152.343964,306.996094 
	C152.722626,320.906891 150.445724,333.652740 142.824081,345.032074 
	C140.488419,348.519318 137.648392,351.534302 134.123444,353.862091 
	C132.961624,354.629364 131.758545,355.332764 130.617599,353.905731 
	C129.486435,352.490936 130.308929,351.416565 131.429749,350.527771 
	C144.866776,339.872375 147.980316,325.088898 148.011703,309.079041 
	C148.035538,296.918091 147.611359,284.809265 143.703903,273.114990 
	C140.019592,262.088470 133.184921,254.001999 122.131119,249.781326 
	C120.520660,249.166412 117.877716,248.849380 118.687355,246.435501 
	C119.622482,243.647507 122.065170,245.137375 123.797028,245.793732 
	C138.214401,251.257736 145.635239,262.557220 149.227386,276.855225 
	C151.667679,286.568451 152.537521,296.488190 152.343964,306.996094 
z"/>
<path fill="#000000" opacity="1.000000" stroke="none" 
	d="
M419.117432,220.215332 
	C422.609436,237.451675 425.141693,254.334076 421.254608,271.460144 
	C419.130402,280.819214 414.962372,288.965210 406.886353,294.626556 
	C405.759308,295.416626 404.297089,296.708344 402.931427,295.098999 
	C401.658020,293.598389 402.524414,292.366547 403.925415,291.381592 
	C414.627594,283.857574 417.634827,272.515900 418.538269,260.501617 
	C419.476807,248.020935 418.231354,235.547180 415.459106,223.367630 
	C412.581390,210.724670 405.706604,201.261368 392.278870,197.945511 
	C390.880920,197.600311 388.358063,197.654831 388.837555,195.252670 
	C389.367218,192.599213 391.839966,193.535583 393.395386,193.894684 
	C406.040253,196.813873 413.830383,205.021606 418.049957,216.989502 
	C418.381531,217.929855 418.694061,218.876938 419.117432,220.215332 
z"/>
<path fill="#000000" opacity="1.000000" stroke="none" 
	d="
M92.603218,312.690247 
	C93.722641,314.548523 95.280769,316.367554 93.173172,317.746246 
	C91.005272,319.164429 89.319473,317.398560 88.410858,315.598969 
	C87.236809,313.273621 84.077553,310.220306 86.945045,308.265961 
	C89.995148,306.187164 90.661583,310.739105 92.603218,312.690247 
z"/>
<path fill="#000000" opacity="1.000000" stroke="none" 
	d="
M386.389343,246.492233 
	C386.169281,249.816025 386.838348,252.842316 385.627472,255.679092 
	C385.170532,256.749634 384.524567,257.848206 383.130890,257.632996 
	C382.611481,257.552826 381.755432,256.846558 381.779785,256.473236 
	C382.131714,251.081665 381.487061,245.713135 380.633759,239.879211 
	C384.708191,240.920044 386.015289,243.110046 386.389343,246.492233 
z"/>
</svg>