<svg version="1.1" id="Layer_1" xmlns="http://www.w3.org/2000/svg" xmlns:xlink="http://www.w3.org/1999/xlink" x="0px" y="0px"
	 width="100%" viewBox="0 0 645 900" enable-background="new 0 0 645 900" xml:space="preserve">
<path fill="none" opacity="1.000000" stroke="#000000" stroke-linecap="round" stroke-linejoin="round" stroke-width="6.000000"
	d="
M235.500000,451.000000 
	C241.152435,438.387665 251.217621,429.236816 261.751282,421.334961 
	C269.877747,415.238770 279.332855,410.487518 288.933868,406.346619 
	C299.372498,401.844513 309.932861,397.650085 321.046417,395.775085 
	C327.110107,394.752045 333.799591,392.837128 340.023621,396.459442 
	C342.407227,397.846649 344.591339,398.830017 345.676422,401.938416 
	C346.781860,405.105255 350.329559,406.115082 353.497162,407.010040 
	C358.674347,408.472839 363.791504,410.180298 369.024475,411.394440 
	C370.680115,411.778595 372.254883,412.295502 372.926270,413.539795 
	C376.304321,419.800110 382.869232,420.600403 388.502594,422.993866 
	C404.339874,429.722687 420.893188,434.223572 437.527069,438.391998 
	C440.711273,439.189972 441.990784,442.025604 444.938568,443.159698 
	C456.227386,447.502747 467.587402,451.677490 478.545502,456.904602 
	C489.457214,462.109650 499.789612,468.132874 507.890320,477.099091 
	C514.101257,483.973602 521.851013,488.082733 530.046570,491.384338 
	C540.402344,495.556152 546.094116,503.102020 549.072449,513.479187 
	C550.692322,519.123230 552.570496,524.645752 553.727905,530.454590 
	C554.336243,533.507507 554.230042,535.884155 553.016602,538.507690 
	C552.420471,539.796509 552.143188,541.243591 551.475403,542.486755 
	C548.461243,548.098267 549.641296,553.819702 551.029175,559.492859 
	C552.720459,566.406616 552.835327,573.521240 553.975586,580.503967 
	C556.003357,592.921814 555.238953,605.510925 555.796265,618.009094 
	C556.277344,628.798645 555.582275,639.733276 554.352905,650.483215 
	C552.806152,664.007874 552.570190,677.509705 553.623474,690.990356 
	C554.495850,702.156128 558.221252,711.657471 568.846130,718.248047 
	C579.341980,724.758667 588.998474,732.785950 596.553955,742.959961 
	C600.766663,748.632690 607.050781,751.624023 613.519531,753.945557 
	C619.268982,756.008850 624.993408,758.134827 630.975464,759.600159 
	C637.710083,761.249817 642.293823,765.945862 645.866272,772.147461 
	C640.659363,777.170166 636.421875,782.938904 628.524048,784.155884 
	C625.213013,784.666016 621.603271,784.738770 619.104858,783.738159 
	C611.378296,780.643799 603.456238,780.835754 595.499756,780.505920 
	C593.534058,780.424438 591.620239,780.578796 589.728149,779.539795 
	C582.866943,775.772156 575.815125,772.343445 569.031250,768.445557 
	C563.316101,765.161743 557.305176,762.620667 550.965881,761.146606 
	C547.998413,760.456604 544.601196,760.988098 541.513977,761.573608 
	C535.542725,762.706177 529.552002,763.570007 523.499146,763.987854 
	C511.360596,764.825989 504.148712,754.379028 505.999084,743.499817 
	C507.393616,735.300537 512.260803,728.425964 514.626221,720.537842 
	C518.738098,706.826111 520.544006,693.225769 517.686462,678.962646 
	C516.592163,673.501038 514.053528,667.549133 514.926697,662.574890 
	C516.609314,652.988525 510.548706,647.499817 506.365753,641.087585 
	C500.814423,632.577576 498.550323,623.307861 496.888367,613.518982 
	C494.457855,599.203308 497.708527,585.167542 497.966492,570.999390 
	C497.990570,569.677063 498.968628,568.866089 499.091827,567.508362 
	C500.076508,556.658997 500.162231,556.640930 490.495239,551.508972 
	C484.421661,548.284668 478.936584,544.298950 473.979401,539.521362 
	C469.172058,534.888245 463.460571,531.328735 456.971008,530.161072 
	C449.428619,528.803772 441.663818,528.697510 434.000732,527.992004 
	C425.004913,527.163696 416.263977,525.184326 408.020355,521.454956 
	C403.408783,519.368774 398.473663,517.848389 394.721802,514.501648 
	C391.599579,514.408020 392.414124,517.102234 391.500000,518.500000 
"/>
<path fill="none" opacity="1.000000" stroke="#000000" stroke-linecap="round" stroke-linejoin="round" stroke-width="6.000000"
	d="
M69.999992,283.000000 
	C66.666656,278.166656 63.478203,273.224731 59.958900,268.530823 
	C56.497894,263.914642 52.250275,260.233673 47.043404,257.419678 
	C32.952557,249.804474 19.670649,255.388123 12.528619,267.017578 
	C4.553814,280.003021 3.275495,294.185120 5.195331,309.007080 
	C6.996461,322.912598 11.513625,335.562439 20.477728,346.518219 
	C25.985542,353.249817 32.163956,358.727631 40.983433,360.819824 
	C48.768051,362.666534 55.477669,360.542786 61.458755,355.946320 
	C70.883461,348.703552 73.548820,337.961914 75.484489,326.997253 
	C77.164764,317.479340 75.296158,307.982086 74.772316,298.512604 
	C74.592163,295.256104 72.448341,291.914917 71.314278,288.562836 
	C70.743782,286.876526 70.559380,285.148865 70.000000,283.500000 
"/>
<path fill="none" opacity="1.000000" stroke="#000000" stroke-linecap="round" stroke-linejoin="round" stroke-width="6.000000"
	d="
M405.000000,267.500000 
	C407.666656,270.000000 410.342377,272.490417 412.998474,275.001617 
	C425.324646,286.655365 445.034271,285.516937 453.605194,268.553131 
	C459.685577,256.518616 461.526154,244.293335 459.651398,230.978683 
	C458.049957,219.604965 454.884064,209.108383 448.562836,199.458847 
	C443.995026,192.485992 438.610321,186.684402 431.018066,182.963165 
	C421.771118,178.430908 411.573761,180.002975 405.063629,186.563156 
	C398.287842,193.391006 393.621735,201.459335 393.500000,211.500000 
"/>
<path fill="none" opacity="1.000000" stroke="#000000" stroke-linecap="round" stroke-linejoin="round" stroke-width="6.000000"
	d="
M364.000000,218.000000 
	C359.572266,212.770386 355.917999,206.967926 350.564240,202.424316 
	C336.932831,190.855637 319.487213,193.888336 310.957550,209.977493 
	C304.376709,222.390793 303.570862,235.331299 305.356110,249.018768 
	C307.121613,262.554901 311.943848,274.450378 320.472260,285.022400 
	C326.338379,292.294220 333.383789,297.219086 342.999542,297.758118 
	C347.036194,297.984375 350.902039,297.511108 354.503326,295.505981 
	C365.105591,289.602753 369.472534,279.908234 371.597260,268.518158 
	C372.907990,261.491760 372.676208,254.478638 372.369843,247.505722 
	C372.012451,239.370804 369.465515,231.584000 366.485474,224.005707 
	C365.749481,222.134094 364.833344,220.333328 364.000000,218.500000 
"/>
<path fill="none" opacity="1.000000" stroke="#000000" stroke-linecap="round" stroke-linejoin="round" stroke-width="6.000000"
	d="
M363.500000,588.000000 
	C364.301270,589.603210 363.987518,591.325562 363.988495,593.000000 
	C364.004639,620.833313 364.021423,648.666748 363.977661,676.499939 
	C363.970856,680.833557 363.839996,685.182068 363.457306,689.496216 
	C362.948090,695.237671 364.282593,696.525391 369.490814,694.476685 
	C382.019135,689.548645 394.489105,684.472534 407.003448,679.508667 
	C416.986328,675.548950 426.972473,671.593872 437.017334,667.795837 
	C439.916534,666.699646 442.709747,666.426453 445.592590,668.891724 
	C448.505798,671.382996 452.082428,673.161743 455.523926,674.954041 
	C458.902039,676.713318 460.540955,678.933960 460.103027,683.011047 
	C459.642853,687.294922 461.474701,692.510315 459.606995,695.775146 
	C457.520355,699.422607 451.735992,699.829651 447.496948,701.492188 
	C406.668701,717.505249 365.837311,733.510254 324.989258,749.472534 
	C322.739044,750.351868 320.333313,750.833313 318.000000,751.500000 
"/>
<path fill="none" opacity="1.000000" stroke="#000000" stroke-linecap="round" stroke-linejoin="round" stroke-width="7.000000"
	d="
M159.500000,427.500000 
	C157.661530,429.357788 158.002258,431.721375 158.001938,434.000000 
	C157.998718,456.333344 157.864838,478.668243 158.128494,500.998474 
	C158.174271,504.874054 156.600433,506.494781 153.496414,507.488800 
	C134.170212,513.677734 114.846115,519.873901 95.493538,525.979492 
	C88.105461,528.310364 88.377380,528.324585 87.885689,535.992676 
	C87.459587,542.637878 88.835815,547.947632 94.440590,552.080566 
	C97.441757,554.293640 99.833336,557.333313 102.500000,560.000000 
"/>
<path fill="none" opacity="1.000000" stroke="#000000" stroke-linecap="round" stroke-linejoin="round" stroke-width="7.000000"
	d="
M279.500000,644.000000 
	C275.494843,646.787170 275.175690,651.517822 273.532166,655.513245 
	C266.669373,672.196899 264.691864,689.742493 266.178497,707.485046 
	C267.309418,720.981812 270.653442,734.227966 273.452362,747.510010 
	C275.918915,759.214844 277.467255,771.082275 278.454956,783.003723 
	C278.808075,787.265381 277.857025,791.579895 276.370087,795.450073 
	C273.517914,802.873535 275.025696,808.540283 281.500000,813.000000 
"/>
<path fill="none" opacity="1.000000" stroke="#000000" stroke-linecap="round" stroke-linejoin="round" stroke-width="6.000000"
	d="
M69.000000,350.500000 
	C72.984734,354.135773 70.988380,358.899292 70.837067,362.993988 
	C70.387230,375.167328 69.654305,387.407715 70.768105,399.475250 
	C71.631813,408.833160 77.156387,416.964172 82.017647,424.989319 
	C85.861519,431.334900 90.956413,436.612274 96.481415,441.520935 
	C99.651825,444.337646 102.838074,447.123352 105.544975,450.463562 
	C110.283646,456.310913 123.165939,454.271088 126.314262,446.425476 
	C131.490936,433.525238 143.334671,428.037476 152.877838,419.857483 
	C156.052521,417.136261 157.480637,412.588287 159.004990,408.501862 
	C164.600449,393.501770 164.897369,378.157593 162.632355,362.480865 
	C161.854095,357.094482 160.599640,351.566833 161.954285,345.988892 
	C162.331909,344.433929 162.684311,343.008820 164.000000,342.000000 
"/>
<path fill="none" opacity="1.000000" stroke="#000000" stroke-linecap="round" stroke-linejoin="round" stroke-width="6.000000"
	d="
M261.750000,553.000000 
	C259.268982,550.655884 260.729523,547.692566 260.508728,544.999268 
	C259.957611,538.276978 260.984680,531.809814 264.539276,526.024109 
	C269.240692,518.371887 273.931488,510.468323 283.509552,508.037659 
	C297.612976,504.458618 311.753693,504.612488 325.432434,509.682343 
	C329.364990,511.139893 333.070557,513.774719 335.727844,517.851501 
	C337.401428,520.419067 338.984161,523.572388 342.420929,525.170105 
	C344.988007,526.363403 344.520691,529.821533 345.088867,532.481018 
	C347.353729,543.082520 349.899902,553.600647 350.561249,564.496277 
	C351.057404,572.670349 351.766266,580.873718 352.118591,589.016479 
	C352.296326,593.124634 350.673248,598.525330 347.375549,601.877563 
	C343.709961,605.603760 343.296570,610.129089 343.176483,614.504822 
	C343.030457,619.825073 341.269897,624.395447 338.414886,628.439941 
	C332.845764,636.329163 331.843811,645.294250 330.178528,654.441467 
	C328.761505,662.224854 328.892822,669.387878 330.330811,677.031799 
	C331.743713,684.542297 331.850067,692.252686 331.130463,700.012085 
	C330.246002,709.549622 327.290039,718.194824 321.939301,725.958130 
	C317.297638,732.692688 315.715332,740.307495 316.211212,747.986389 
	C316.750305,756.334351 317.199402,764.670593 316.910461,772.996887 
	C316.583832,782.408813 318.100983,791.661926 318.621338,800.993225 
	C318.929321,806.515686 322.141052,811.147583 326.035583,814.963684 
	C335.202515,823.946045 342.634033,834.032043 347.589508,845.962830 
	C348.987061,849.327515 351.718140,852.090942 354.535339,854.457947 
	C358.679932,857.940308 362.277832,861.608521 364.144470,866.949524 
	C364.948761,869.250916 367.237701,871.090027 369.018616,872.982544 
	C373.690186,877.946655 372.975281,883.195190 366.998871,886.998230 
	C363.673859,889.114136 360.260742,889.847473 356.476410,888.049683 
	C355.123505,887.407043 353.499786,887.334290 351.500000,886.890625 
	C351.500000,885.501526 351.500000,884.000793 351.500000,882.500000 
"/>
<path fill="none" opacity="1.000000" stroke="#000000" stroke-linecap="round" stroke-linejoin="round" stroke-width="6.000000"
	d="
M246.000000,513.000000 
	C218.666672,521.916687 191.327698,530.816101 164.001938,539.755920 
	C144.991898,545.975220 125.985245,552.206116 107.026489,558.578796 
	C105.417213,559.119690 102.558495,558.337769 102.500000,561.500000 
"/>
<path fill="none" opacity="1.000000" stroke="#000000" stroke-linecap="round" stroke-linejoin="round" stroke-width="5.000000"
	d="
M402.500000,271.000000 
	C403.945374,277.333344 402.396332,283.669006 402.361328,289.999237 
	C402.334778,294.801147 402.907654,299.561279 404.165894,303.952484 
	C408.549774,319.252502 407.761108,334.178528 402.471222,348.989716 
	C400.209045,355.323639 399.498474,361.915771 399.076843,368.504913 
	C398.527039,377.097076 393.021057,380.797852 384.462982,378.647247 
	C380.474854,377.645050 375.938232,378.839233 372.064392,379.768433 
	C364.453003,381.594086 357.568756,379.039581 350.527863,377.836914 
	C343.070465,376.563141 335.836975,373.986603 328.498260,372.006439 
	C325.437744,371.180634 321.704071,372.645447 319.473328,369.016388 
	C316.511261,364.197540 314.106018,359.126068 313.588348,353.491882 
	C313.193939,349.199432 312.780365,344.898468 313.360016,340.481628 
	C313.936371,336.089752 311.941711,331.981750 310.030823,327.985260 
	C304.592590,316.611877 295.828003,309.057129 283.987488,305.036835 
	C280.604492,303.888153 277.000336,304.659302 273.500000,304.500000 
"/>
<path fill="none" opacity="1.000000" stroke="#000000" stroke-linecap="round" stroke-linejoin="round" stroke-width="6.000000"
	d="
M465.500000,534.500000 
	C464.877380,535.614136 463.885498,536.557983 463.996094,538.000305 
	C464.753937,547.883484 458.280182,552.587891 450.464325,555.400879 
	C424.725800,564.664246 398.792419,573.385376 373.028107,582.578674 
	C366.408234,584.940857 360.161133,588.354797 353.000000,589.000000 
"/>
<path fill="none" opacity="1.000000" stroke="#000000" stroke-linecap="round" stroke-linejoin="round" stroke-width="6.000000"
	d="
M277.500000,811.000000 
	C276.990814,812.632446 276.091217,814.084412 276.954468,816.020325 
	C280.384186,823.712036 279.903442,831.890869 279.454803,839.997498 
	C279.174561,845.061035 280.920746,849.324463 283.466248,853.520508 
	C287.267059,859.785889 290.306213,866.133118 289.709930,874.015869 
	C289.335052,878.971619 291.149475,883.769409 295.934967,887.093628 
	C301.796661,891.165466 307.677338,894.572693 314.986725,895.371460 
	C318.397705,895.744202 321.681946,897.372986 324.989838,898.529114 
	C325.878937,898.839844 325.399323,899.816833 325.500000,900.500000 
"/>
<path fill="none" opacity="1.000000" stroke="#000000" stroke-linecap="round" stroke-linejoin="round" stroke-width="3.000000"
	d="
M144.000000,338.000000 
	C150.890091,331.481995 153.369019,322.924011 153.886520,313.993439 
	C155.080933,293.381561 151.610672,273.800812 138.454285,257.035858 
	C134.437378,251.917206 129.552567,247.771103 122.500000,247.500000 
"/>
<path fill="none" opacity="1.000000" stroke="#000000" stroke-linecap="round" stroke-linejoin="round" stroke-width="3.000000"
	d="
M32.500000,261.000000 
	C44.751476,264.152466 51.199131,273.181549 56.021057,283.990601 
	C63.866554,301.577484 65.680557,319.710297 61.531467,338.506958 
	C60.333179,343.935547 56.756062,347.970520 54.000000,352.500000 
"/>
<path fill="none" opacity="1.000000" stroke="#000000" stroke-linecap="round" stroke-linejoin="round" stroke-width="3.000000"
	d="
M332.000000,201.500000 
	C334.100494,204.412506 337.861053,204.409653 340.551422,206.431564 
	C346.535797,210.928970 350.543213,216.937210 353.406067,223.540726 
	C360.335907,239.525146 363.153564,256.197723 359.430298,273.484985 
	C358.138367,279.483521 356.370422,285.500031 350.500000,289.000000 
"/>
<path fill="none" opacity="1.000000" stroke="#000000" stroke-linecap="round" stroke-linejoin="round" stroke-width="3.000000"
	d="
M417.500000,189.000000 
	C430.366730,192.338730 436.398224,202.257736 440.988770,213.504578 
	C446.500977,227.009628 448.118256,241.070129 446.463196,255.495773 
	C445.596222,263.052368 443.322235,270.103333 437.500000,275.500000 
"/>
<path fill="none" opacity="1.000000" stroke="#000000" stroke-linecap="round" stroke-linejoin="round" stroke-width="7.000000"
	d="
M442.500000,442.500000 
	C438.039856,445.799530 432.452271,445.789764 427.453186,446.758484 
	C413.356598,449.490143 405.378235,458.195679 401.040344,471.013641 
	C396.275299,485.093781 394.153748,499.681671 393.500000,514.500000 
"/>
<path fill="none" opacity="1.000000" stroke="#000000" stroke-linecap="round" stroke-linejoin="round" stroke-width="6.000000"
	d="
M262.500000,553.000000 
	C264.226227,554.830322 266.213837,556.348572 267.049133,558.984436 
	C269.792542,567.641235 276.127747,574.137756 281.074738,581.449402 
	C283.639038,585.239502 284.445038,589.020752 284.074768,593.506165 
	C283.331024,602.515991 283.893372,611.551453 285.119415,620.483582 
	C285.568420,623.754639 285.197327,626.552917 284.040405,629.515747 
	C282.700226,632.947998 281.885742,636.593445 280.442871,639.975647 
	C278.754608,643.933105 281.780853,646.698792 282.588440,649.978210 
	C284.927643,659.477051 287.729645,668.855896 292.500000,677.500000 
"/>
<path fill="none" opacity="1.000000" stroke="#000000" stroke-linecap="round" stroke-linejoin="round" stroke-width="4.000000"
	d="
M439.500000,539.000000 
	C437.669861,537.531921 436.000641,539.117432 434.531036,539.595398 
	C409.321198,547.796021 384.165680,556.163757 359.001526,564.504639 
	C356.558868,565.314209 354.116516,566.082642 351.500000,566.000000 
"/>
<path fill="none" opacity="1.000000" stroke="#000000" stroke-linecap="round" stroke-linejoin="round" stroke-width="5.000000"
	d="
M317.500000,408.500000 
	C315.607819,409.344513 313.895325,410.409058 312.488251,411.989563 
	C306.239746,419.008270 297.838013,421.427734 289.005005,423.027588 
	C282.299988,424.242065 276.723267,427.318756 271.900543,432.405701 
	C266.039703,438.587646 259.104523,443.805054 255.034912,451.518433 
	C252.367889,456.573395 249.456787,461.587952 249.000000,467.500000 
"/>
<path fill="none" opacity="1.000000" stroke="#000000" stroke-linecap="round" stroke-linejoin="round" stroke-width="5.000000"
	d="
M235.500000,297.500000 
	C234.731857,306.290710 234.612198,306.055084 225.516983,308.076416 
	C214.863983,310.443970 205.373672,314.458984 198.839478,324.394440 
	C190.992691,336.325714 179.356064,341.153351 164.992767,338.539795 
	C164.215500,338.398346 163.333328,338.833344 162.500000,339.000000 
"/>
<path fill="none" opacity="1.000000" stroke="#000000" stroke-linecap="round" stroke-linejoin="round" stroke-width="6.000000"
	d="
M235.000000,458.500000 
	C235.855087,455.161835 236.075287,451.971985 233.006653,449.491760 
	C232.459808,449.049713 231.747498,448.588470 231.536789,447.987122 
	C225.690475,431.302612 211.481613,423.311157 197.526642,414.955505 
	C190.721176,410.880676 184.617996,405.617218 176.516602,403.920685 
	C173.801376,403.352051 171.478806,401.944733 168.434570,403.359192 
	C166.509018,404.253876 165.026611,401.408142 163.000000,401.000000 
"/>
<path fill="none" opacity="1.000000" stroke="#000000" stroke-linecap="round" stroke-linejoin="round" stroke-width="5.000000"
	d="
M361.500000,417.500000 
	C342.021851,424.276031 322.412506,430.698792 303.501007,439.002319 
	C297.665009,441.564728 292.348602,444.794617 289.000000,450.500000 
"/>
<path fill="none" opacity="1.000000" stroke="#000000" stroke-linecap="round" stroke-linejoin="round" stroke-width="5.000000"
	d="
M197.500000,282.000000 
	C196.230484,277.249817 195.736847,272.431915 195.371887,267.509491 
	C194.609375,257.224701 188.243851,250.873840 179.564545,245.887650 
	C169.527756,240.121643 158.781952,237.941010 147.498062,237.557159 
	C144.420517,237.452454 141.170395,237.621674 139.000000,240.500000 
"/>
<path fill="none" opacity="1.000000" stroke="#000000" stroke-linecap="round" stroke-linejoin="round" stroke-width="5.000000"
	d="
M168.000000,404.000000 
	C168.304596,405.663788 169.206192,406.950287 170.498901,408.001343 
	C183.000732,418.165771 195.545883,428.277618 207.982010,438.521851 
	C214.915619,444.233459 221.669052,450.163849 228.495300,456.005493 
	C229.030930,456.463867 229.431107,457.330109 230.010254,457.450958 
	C240.238037,459.585938 238.113083,468.856323 240.492157,475.502808 
	C242.409988,480.860748 243.942383,486.389191 247.504349,490.996643 
	C249.020920,492.958405 248.904327,495.152740 247.000000,499.000000 
"/>
<path fill="none" opacity="1.000000" stroke="#000000" stroke-linecap="round" stroke-linejoin="round" stroke-width="5.000000"
	d="
M327.500000,667.000000 
	C321.195221,669.593872 319.262451,675.779358 316.609192,681.054932 
	C310.036407,694.123657 306.560516,708.281616 303.609100,722.522583 
	C303.019806,725.365967 303.833344,728.500000 304.000000,731.500000 
"/>
<path fill="none" opacity="1.000000" stroke="#000000" stroke-linecap="round" stroke-linejoin="round" stroke-width="6.000000"
	d="
M98.000000,267.500000 
	C99.185440,260.016785 102.603699,253.480652 107.041939,247.531281 
	C115.405258,236.320450 133.369064,234.334518 145.559387,245.937607 
	C157.174271,256.992981 163.736237,270.310211 166.613373,285.979187 
	C169.281235,300.508514 168.633759,314.486359 162.472855,327.987610 
	C158.037399,337.707672 150.768860,343.915436 140.027054,346.131165 
	C136.511932,346.856201 133.840469,345.147430 131.057617,344.308807 
	C123.256760,341.958069 116.449005,337.712616 112.010994,330.493225 
	C110.934334,328.741821 110.656776,327.334106 112.942505,325.907867 
	C115.205421,324.495880 116.777550,321.976013 119.041473,320.566620 
	C125.996994,316.236511 127.675438,309.180695 128.888168,301.981171 
	C129.276810,299.674011 130.306427,297.518921 130.091461,294.992218 
	C129.716858,290.589355 128.338608,288.821350 124.006134,287.968842 
	C119.644913,287.110565 115.360954,285.852173 110.993233,285.036224 
	C105.105743,283.936340 99.765022,281.863403 95.500000,277.500000 
"/>
<path fill="none" opacity="1.000000" stroke="#000000" stroke-linecap="round" stroke-linejoin="round" stroke-width="5.000000"
	d="
M366.000000,428.500000 
	C356.552124,433.208557 346.044586,433.752808 335.965485,435.832733 
	C330.326874,436.996307 326.881165,440.546204 322.974030,443.970367 
	C317.438354,448.821808 311.192047,451.987396 303.500000,451.000000 
"/>
<path fill="none" opacity="1.000000" stroke="#000000" stroke-linecap="round" stroke-linejoin="round" stroke-width="4.000000"
	d="
M355.500000,319.500000 
	C354.462982,320.574158 352.893707,320.299316 352.041443,319.909424 
	C345.939240,317.117401 339.797943,317.493652 333.484985,318.934204 
	C331.479126,319.391968 329.759338,318.712158 328.413727,316.553802 
	C325.703461,312.206512 322.340057,308.271210 319.534576,303.977417 
	C314.291748,295.953369 306.674469,291.833679 297.483673,290.624054 
	C294.588287,290.243011 291.500000,288.041382 288.500000,290.500000 
	C287.699799,289.153625 286.031677,289.374817 284.864258,288.126984 
	C280.564819,283.531616 275.495972,279.644287 269.476044,277.569489 
	C262.357269,275.115906 255.161392,276.728394 247.992004,277.953156 
	C242.893692,278.824158 237.910797,280.066620 234.063156,283.569397 
	C230.242249,287.047791 225.882355,285.343048 222.585648,284.243256 
	C214.081650,281.406372 205.323410,280.978058 197.066452,282.590302 
	C188.213058,284.319031 179.013519,286.134216 170.986374,290.977417 
	C170.423904,291.316803 169.666672,291.333344 169.000000,291.500031 
"/>
<path fill="none" opacity="1.000000" stroke="#000000" stroke-linecap="round" stroke-linejoin="round" stroke-width="6.000000"
	d="
M401.000000,519.000000 
	C396.650574,525.293396 392.685211,526.254395 386.531067,521.955505 
	C379.893585,517.319031 373.297333,512.576416 367.085205,507.397797 
	C363.961456,504.793762 361.445221,504.129089 357.436401,505.278137 
	C354.213654,506.201813 351.204346,507.620331 348.038757,508.622467 
	C345.055176,509.566956 343.583984,512.317688 344.562866,515.480530 
	C345.673645,519.069763 344.708710,522.254211 343.500000,525.500000 
"/>
<path fill="none" opacity="1.000000" stroke="#000000" stroke-linecap="round" stroke-linejoin="round" stroke-width="6.000000"
	d="
M318.500000,346.500000 
	C322.166656,349.333313 325.728821,352.316254 329.522797,354.967346 
	C336.393066,359.768036 344.231201,361.632843 352.499573,362.009247 
	C354.835663,362.115540 357.167206,362.326172 359.499908,362.501404 
	C365.772797,362.972687 369.281250,360.168427 372.000000,352.500000 
"/>
<path fill="none" opacity="1.000000" stroke="#000000" stroke-linecap="round" stroke-linejoin="round" stroke-width="5.000000"
	d="
M86.000000,365.500000 
	C86.537682,377.101807 87.513405,388.694427 95.573280,397.936096 
	C100.802422,403.932007 107.115608,408.654022 115.500000,409.500000 
"/>
<path fill="none" opacity="1.000000" stroke="#000000" stroke-linecap="round" stroke-linejoin="round" stroke-width="4.000000"
	d="
M261.500000,323.500000 
	C262.921753,327.215576 265.589783,330.234589 267.091309,333.963226 
	C268.976532,338.644653 268.612457,343.311707 267.927917,347.989441 
	C267.449249,351.260468 262.099548,354.364746 257.499725,354.489929 
	C255.334656,354.548859 252.813583,353.787445 251.074051,354.649445 
	C247.533813,356.403717 244.135529,358.459656 243.880508,363.493958 
	C243.586304,369.301605 240.982208,373.905609 234.500000,375.000000 
"/>
<path fill="none" opacity="1.000000" stroke="#000000" stroke-linecap="round" stroke-linejoin="round" stroke-width="5.000000"
	d="
M513.500000,536.500000 
	C502.907013,539.558960 494.543732,535.908997 487.480682,528.017273 
	C483.254486,523.295227 478.032471,520.035522 472.019653,517.943542 
	C470.137512,517.288696 468.326782,517.738586 466.500000,517.500000 
"/>
<path fill="none" opacity="1.000000" stroke="#000000" stroke-linecap="round" stroke-linejoin="round" stroke-width="5.000000"
	d="
M341.500000,499.500000 
	C340.015045,499.560791 339.157074,499.351746 338.371521,497.556213 
	C336.615753,493.543121 334.251434,489.782379 331.983307,486.010040 
	C326.332672,476.612030 318.429230,471.068573 307.000000,471.750000 
"/>
<path fill="none" opacity="1.000000" stroke="#000000" stroke-linecap="round" stroke-linejoin="round" stroke-width="6.000000"
	d="
M154.500000,420.500000 
	C162.714371,429.735565 173.321899,436.283478 182.011902,444.988129 
	C183.427307,446.405884 185.062500,447.603699 186.484894,449.015198 
	C188.468140,450.983154 189.177536,452.793671 188.266418,456.074005 
	C187.149002,460.096985 188.000000,464.666656 188.000000,469.000000 
	C188.000000,477.000000 188.058411,485.000641 187.969498,492.999664 
	C187.936737,495.945770 188.747772,497.599274 191.996674,496.490234 
	C202.172394,493.016754 212.338669,489.515259 222.489090,485.968781 
	C223.238937,485.706787 223.833359,485.000031 224.500015,484.500031 
"/>
<path fill="none" opacity="1.000000" stroke="#000000" stroke-linecap="round" stroke-linejoin="round" stroke-width="3.000000"
	d="
M244.000000,308.000000 
	C250.085220,316.645416 248.301270,321.854767 238.017700,326.043457 
	C235.328552,327.138824 232.575073,328.035309 229.943253,329.389709 
	C225.232071,331.814270 222.646683,335.364258 222.000000,340.500000 
"/>
<path fill="none" opacity="1.000000" stroke="#000000" stroke-linecap="round" stroke-linejoin="round" stroke-width="4.000000"
	d="
M221.500000,344.500000 
	C219.005096,349.500000 220.343735,354.445557 221.402481,359.520355 
	C222.040695,362.579468 222.867188,365.695160 222.057632,369.014069 
	C220.261551,376.377289 216.726196,379.191956 209.500000,378.500000 
"/>
<path fill="none" opacity="1.000000" stroke="#000000" stroke-linecap="round" stroke-linejoin="round" stroke-width="5.000000"
	d="
M509.500000,488.500000 
	C508.958099,491.178650 510.560394,493.537628 511.659698,495.406036 
	C518.007751,506.195374 517.489014,517.776123 516.500000,529.500000 
"/>
<path fill="none" opacity="1.000000" stroke="#000000" stroke-linecap="round" stroke-linejoin="round" stroke-width="6.000000"
	d="
M189.500000,453.500000 
	C192.134354,453.031464 193.378418,455.064423 195.010757,456.487671 
	C210.325989,469.841766 225.665253,483.168304 241.004990,496.494263 
	C241.632477,497.039337 242.278824,497.605042 243.008484,497.983643 
	C249.569763,501.387848 249.612701,500.923981 247.643463,508.973938 
	C246.960800,511.764648 247.021057,514.282349 247.468338,517.005188 
	C248.876205,525.576172 249.409180,534.285095 251.503448,542.749146 
	C252.552078,546.987305 254.078491,550.760376 259.500000,550.500000 
"/>
<path fill="none" opacity="1.000000" stroke="#000000" stroke-linecap="round" stroke-linejoin="round" stroke-width="5.000000"
	d="
M153.500000,361.500000 
	C152.471466,369.098267 151.407410,376.668274 147.517639,383.510040 
	C143.607971,390.386780 138.160385,394.893616 130.000000,395.500000 
"/>
<path fill="none" opacity="1.000000" stroke="#000000" stroke-linecap="round" stroke-linejoin="round" stroke-width="5.000000"
	d="
M114.500000,336.000000 
	C109.556358,341.705322 108.708702,348.308411 109.836113,355.525604 
	C109.968658,356.374115 109.673004,357.835175 109.517929,359.002380 
	C109.096329,362.175629 110.131607,364.819611 112.490822,367.009888 
	C115.860115,370.137817 119.177788,373.321716 122.497627,376.502472 
	C128.893661,382.630615 130.062424,390.217499 128.475693,398.495331 
	C127.859772,401.708588 127.658615,405.050507 126.000000,408.000000 
"/>
<path fill="none" opacity="1.000000" stroke="#000000" stroke-linecap="round" stroke-linejoin="round" stroke-width="4.000000"
	d="
M378.500000,433.500000 
	C375.475769,438.819702 371.403900,443.574738 369.525330,449.508026 
	C367.160461,456.977112 366.369598,464.685883 366.500000,472.500000 
"/>
<path fill="none" opacity="1.000000" stroke="#000000" stroke-linecap="round" stroke-linejoin="round" stroke-width="4.000000"
	d="
M381.000000,302.500000 
	C385.364746,314.106689 386.292480,325.762482 381.500000,337.500000 
"/>
<path fill="none" opacity="1.000000" stroke="#000000" stroke-linecap="round" stroke-linejoin="round" stroke-width="3.000000"
	d="
M286.000000,375.000000 
	C289.519226,377.709412 292.217316,380.812195 293.153473,385.469147 
	C293.560699,387.494843 295.642670,389.183868 296.649261,390.587036 
	C296.276855,397.368713 290.999451,399.579193 286.450165,402.308075 
	C287.029907,403.315033 287.514954,404.157532 288.000000,405.000000 
"/>
<path fill="none" opacity="1.000000" stroke="#000000" stroke-linecap="round" stroke-linejoin="round" stroke-width="4.000000"
	d="
M366.000000,286.500000 
	C369.707947,290.039886 367.977783,294.342590 366.821564,297.942688 
	C365.350983,302.521484 362.725800,306.743195 359.580536,310.566254 
	C358.790161,311.526978 357.821014,312.477203 357.404022,313.973236 
	C355.799530,319.729706 355.720154,321.410858 360.566193,324.392426 
	C368.604767,329.338257 371.034332,337.189880 373.000000,345.500000 
"/>
<path fill="none" opacity="1.000000" stroke="#000000" stroke-linecap="round" stroke-linejoin="round" stroke-width="6.000000"
	d="
M376.500000,219.000000 
	C381.713348,215.991013 387.619904,214.497375 393.136261,212.350082 
	C400.687317,209.410812 409.138885,216.032578 409.279602,224.503662 
	C409.385834,230.900528 411.009155,236.863739 412.065735,242.988663 
	C413.215698,249.654892 412.527863,255.635284 408.042847,261.035583 
	C405.017303,264.678558 404.258606,269.850189 399.171967,272.349915 
	C397.715942,273.065460 397.922424,278.033905 398.165955,280.986298 
	C398.296051,282.563446 397.866577,284.000000 398.000000,285.500000 
"/>
<path fill="none" opacity="1.000000" stroke="#000000" stroke-linecap="round" stroke-linejoin="round" stroke-width="5.000000"
	d="
M262.000000,420.000000 
	C253.988541,414.407776 245.169006,413.789673 236.026886,416.106079 
	C234.545715,416.481384 232.579575,415.738708 231.500000,417.500000 
"/>
<path fill="none" opacity="1.000000" stroke="#000000" stroke-linecap="round" stroke-linejoin="round" stroke-width="4.000000"
	d="
M70.500000,283.000000 
	C73.333336,282.166656 76.126015,281.133392 79.009590,280.547150 
	C83.269798,279.681061 86.513077,278.065460 89.157158,274.104919 
	C93.345955,267.830597 95.684090,267.450378 102.969269,270.084991 
	C105.142021,270.870728 107.324860,270.565308 109.566154,271.297485 
	C117.884575,274.014923 118.465096,274.322968 118.499474,283.000000 
	C118.503433,284.000000 118.500000,285.000000 118.500000,286.000000 
"/>
<path fill="none" opacity="1.000000" stroke="#000000" stroke-linecap="round" stroke-linejoin="round" stroke-width="4.000000"
	d="
M639.000000,778.000000 
	C638.666687,777.500000 638.040588,776.997864 638.044128,776.500305 
	C638.095703,769.400574 633.278381,769.143188 628.003052,768.925659 
	C623.255920,768.729980 619.456116,764.794006 614.500000,765.000000 
"/>
<path fill="none" opacity="1.000000" stroke="#000000" stroke-linecap="round" stroke-linejoin="round" stroke-width="4.000000"
	d="
M373.500000,245.500000 
	C380.458618,245.089920 385.406799,241.692535 386.486328,236.497162 
	C387.003754,234.007034 386.213196,231.617554 384.426819,230.085342 
	C382.578583,228.500076 381.126526,230.286346 379.420288,231.375107 
	C377.071808,232.873734 374.166656,233.499985 371.500000,234.499985 
"/>
<path fill="none" opacity="1.000000" stroke="#000000" stroke-linecap="round" stroke-linejoin="round" stroke-width="5.000000"
	d="
M269.500000,343.000000 
	C270.666656,343.667908 271.576324,340.684753 273.055054,342.964294 
	C275.883179,347.323914 280.183777,346.332001 283.961304,344.898041 
	C288.142731,343.310791 291.855774,343.665558 294.908905,346.594940 
	C296.681366,348.295593 298.027832,346.582947 299.500000,347.000000 
"/>
<path fill="none" opacity="1.000000" stroke="#000000" stroke-linecap="round" stroke-linejoin="round" stroke-width="6.000000"
	d="
M351.500000,887.500000 
	C348.804382,892.874756 344.182617,895.022339 338.509460,894.411926 
	C333.565125,893.879822 330.067871,896.857971 326.000000,898.500000 
"/>
<path fill="none" opacity="1.000000" stroke="#000000" stroke-linecap="round" stroke-linejoin="round" stroke-width="3.000000"
	d="
M306.500000,789.500000 
	C303.772614,800.044250 297.487366,808.480164 290.500000,816.500000 
"/>
<path fill="none" opacity="1.000000" stroke="#000000" stroke-linecap="round" stroke-linejoin="round" stroke-width="4.000000"
	d="
M242.000000,296.500000 
	C243.881516,300.864075 246.496063,302.389038 251.001648,302.020111 
	C256.204651,301.594086 261.462250,300.668610 266.500000,303.000000 
"/>
<path fill="none" opacity="1.000000" stroke="#000000" stroke-linecap="round" stroke-linejoin="round" stroke-width="5.000000"
	d="
M331.500000,563.500000 
	C331.699860,567.390259 335.159546,569.228882 337.134399,571.900635 
	C340.870483,576.955139 342.390961,582.425232 342.500000,588.500000 
"/>
<path fill="none" opacity="1.000000" stroke="#000000" stroke-linecap="round" stroke-linejoin="round" stroke-width="4.000000"
	d="
M282.000000,370.000000 
	C281.500000,371.166656 280.565155,372.337250 280.575623,373.499329 
	C280.619873,378.420074 277.862335,379.898529 273.501099,380.035217 
	C269.232056,380.169067 265.979889,381.909607 265.000000,386.500000 
"/>
<path fill="none" opacity="1.000000" stroke="#000000" stroke-linecap="round" stroke-linejoin="round" stroke-width="3.000000"
	d="
M255.500000,310.500000 
	C260.182434,317.896576 267.417236,318.808990 274.970032,317.345306 
	C279.398102,316.487152 281.802826,317.752289 283.500000,321.500000 
"/>
<path fill="none" opacity="1.000000" stroke="#000000" stroke-linecap="round" stroke-linejoin="round" stroke-width="5.000000"
	d="
M335.000000,875.000000 
	C333.000000,874.343994 330.866150,874.087585 329.025330,875.048523 
	C323.706207,877.825195 318.345917,875.787292 313.000824,875.485596 
	C311.825897,875.419312 311.396332,874.619446 311.500000,873.500000 
"/>
<path fill="none" opacity="1.000000" stroke="#000000" stroke-linecap="round" stroke-linejoin="round" stroke-width="4.000000"
	d="
M174.500000,373.500000 
	C179.531479,376.964935 178.981934,382.517181 179.384628,387.509308 
	C179.670013,391.047363 180.718369,393.568970 184.000000,395.000000 
"/>
<path fill="none" opacity="1.000000" stroke="#000000" stroke-linecap="round" stroke-linejoin="round" stroke-width="3.000000"
	d="
M241.500000,389.500000 
	C243.754105,388.041870 244.992889,389.418793 246.543091,390.956573 
	C251.768890,396.140564 254.677612,396.400055 260.939636,391.915710 
	C262.871765,390.532104 264.677155,391.390930 266.500000,391.000000 
"/>
<path fill="none" opacity="1.000000" stroke="#000000" stroke-linecap="round" stroke-linejoin="round" stroke-width="3.000000"
	d="
M181.000000,357.500000 
	C181.000000,357.666656 180.954254,357.849548 181.006699,357.997620 
	C182.288177,361.615723 181.726929,366.472748 187.005524,367.470825 
	C190.460495,368.124115 193.935669,369.184143 197.500000,368.000000 
"/>
<path fill="none" opacity="1.000000" stroke="#000000" stroke-linecap="round" stroke-linejoin="round" stroke-width="5.000000"
	d="
M323.500000,372.500000 
	C322.778503,376.300323 326.064606,378.259186 327.607910,380.937805 
	C329.487183,384.199463 332.195526,386.978210 334.485260,390.011139 
	C335.355957,391.164337 335.609131,392.556061 335.500000,394.000000 
"/>
<path fill="none" opacity="1.000000" stroke="#000000" stroke-linecap="round" stroke-linejoin="round" stroke-width="4.000000"
	d="
M409.500000,235.500000 
	C405.136230,241.904999 398.318298,245.128662 392.000000,249.000000 
"/>
<path fill="none" opacity="1.000000" stroke="#000000" stroke-linecap="round" stroke-linejoin="round" stroke-width="6.000000"
	d="
M322.500000,562.500000 
	C318.479309,568.087341 315.279602,574.295166 309.556763,578.575867 
	C307.941498,579.784119 306.186096,580.532349 304.500000,581.500000 
"/>
<path fill="none" opacity="1.000000" stroke="#000000" stroke-linecap="round" stroke-linejoin="round" stroke-width="4.000000"
	d="
M93.500000,310.500000 
	C88.323647,310.033539 85.603271,306.461304 82.932388,302.546112 
	C81.237114,300.061066 79.540741,296.932098 75.500000,298.000000 
"/>
<path fill="none" opacity="1.000000" stroke="#000000" stroke-linecap="round" stroke-linejoin="round" stroke-width="4.000000"
	d="
M220.000000,381.500000 
	C223.670761,389.497437 228.470215,390.322174 238.500000,387.500000 
"/>
<path fill="none" opacity="1.000000" stroke="#000000" stroke-linecap="round" stroke-linejoin="round" stroke-width="4.000000"
	d="
M102.000000,284.000000 
	C100.036789,290.447662 100.751076,292.922516 106.015190,296.477509 
	C111.029762,299.863983 116.368782,301.971680 122.500000,299.500000 
"/>
<path fill="none" opacity="1.000000" stroke="#000000" stroke-linecap="round" stroke-linejoin="round" stroke-width="5.000000"
	d="
M245.000000,471.500000 
	C247.101456,475.786499 250.255905,479.500214 251.116608,484.479858 
	C251.606201,487.312347 251.122803,489.281372 249.000000,491.000000 
"/>
<path fill="none" opacity="1.000000" stroke="#000000" stroke-linecap="round" stroke-linejoin="round" stroke-width="4.000000"
	d="
M274.000000,351.000000 
	C278.630768,354.101288 279.875092,359.047211 280.361298,364.013580 
	C280.661591,367.081055 281.667328,369.249664 284.000000,371.000000 
"/>
<path fill="none" opacity="1.000000" stroke="#000000" stroke-linecap="round" stroke-linejoin="round" stroke-width="3.000000"
	d="
M196.500000,356.500000 
	C200.938705,362.877533 207.145462,363.232208 214.000000,357.500000 
"/>
<path fill="none" opacity="1.000000" stroke="#000000" stroke-linecap="round" stroke-linejoin="round" stroke-width="3.000000"
	d="
M112.500000,301.000000 
	C108.951927,304.239227 103.997627,304.116516 99.907150,306.328278 
	C93.926025,309.562317 91.833633,314.214447 92.000000,320.500000 
"/>
<path fill="none" opacity="1.000000" stroke="#000000" stroke-linecap="round" stroke-linejoin="round" stroke-width="4.000000"
	d="
M209.500000,343.000000 
	C204.988480,343.255676 200.854401,344.792053 197.025131,347.042755 
	C194.495453,348.529633 192.141220,349.451599 189.500000,347.500000 
"/>
<path fill="none" opacity="1.000000" stroke="#000000" stroke-linecap="round" stroke-linejoin="round" stroke-width="5.000000"
	d="
M103.000000,333.500000 
	C104.069084,336.923340 105.010284,340.360443 105.020348,343.999939 
	C105.026817,346.336670 105.157829,348.695038 107.000000,350.500000 
"/>
<path fill="none" opacity="1.000000" stroke="#000000" stroke-linecap="round" stroke-linejoin="round" stroke-width="4.000000"
	d="
M299.500000,351.000000 
	C302.819519,352.198364 303.523804,354.883667 303.503876,358.000031 
	C303.485748,360.833252 303.500000,363.666656 303.500000,366.500000 
"/>
<path fill="none" opacity="1.000000" stroke="#000000" stroke-linecap="round" stroke-linejoin="round" stroke-width="6.000000"
	d="
M516.500000,557.000000 
	C511.000000,557.375793 505.500000,555.606506 500.000000,557.000000 
"/>
<path fill="none" opacity="1.000000" stroke="#000000" stroke-linecap="round" stroke-linejoin="round" stroke-width="4.000000"
	d="
M381.500000,245.000000 
	C382.679993,246.386658 384.369904,246.603058 385.997711,247.009186 
	C392.562836,248.647064 394.496246,250.564453 393.452301,258.493713 
	C393.119385,261.022400 393.075348,263.841797 390.500000,265.500000 
"/>
<path fill="none" opacity="1.000000" stroke="#000000" stroke-linecap="round" stroke-linejoin="round" stroke-width="4.000000"
	d="
M395.000000,223.500000 
	C398.221893,228.652802 398.490906,233.990158 396.000000,239.500000 
"/>
<path fill="none" opacity="1.000000" stroke="#000000" stroke-linecap="round" stroke-linejoin="round" stroke-width="4.000000"
	d="
M97.500000,299.000000 
	C96.000000,296.666656 94.515800,294.322998 92.996109,292.002563 
	C90.978737,288.922241 88.496605,286.535553 84.500000,286.500000 
"/>
<path fill="none" opacity="1.000000" stroke="#000000" stroke-linecap="round" stroke-linejoin="round" stroke-width="4.000000"
	d="
M287.000000,368.500000 
	C288.978516,371.535461 291.834412,371.589478 295.004852,371.027344 
	C299.201782,370.283203 303.562683,368.957153 307.000000,373.000000 
"/>
<path fill="none" opacity="1.000000" stroke="#000000" stroke-linecap="round" stroke-linejoin="round" stroke-width="3.000000"
	d="
M307.500000,377.000000 
	C314.133698,380.082458 316.200348,383.802460 315.000000,390.500000 
"/>
<path fill="none" opacity="1.000000" stroke="#000000" stroke-linecap="round" stroke-linejoin="round" stroke-width="4.000000"
	d="
M527.500000,719.500000 
	C527.578247,722.823486 526.611023,725.937561 525.486267,728.994934 
	C522.933716,735.933228 524.318787,738.184021 531.500549,738.487183 
	C533.497009,738.571472 535.500000,738.500000 537.500000,738.500000 
"/>
<path fill="none" opacity="1.000000" stroke="#000000" stroke-linecap="round" stroke-linejoin="round" stroke-width="3.000000"
	d="
M197.500000,387.500000 
	C202.304398,389.633636 207.250992,390.700897 212.500000,389.500000 
"/>
<path fill="none" opacity="1.000000" stroke="#000000" stroke-linecap="round" stroke-linejoin="round" stroke-width="6.000000"
	d="
M311.500000,624.500000 
	C315.310638,628.159912 319.261322,631.347168 325.000000,628.500000 
"/>
<path fill="none" opacity="1.000000" stroke="#000000" stroke-linecap="round" stroke-linejoin="round" stroke-width="3.000000"
	d="
M323.500000,382.500000 
	C320.354309,383.777283 321.386353,386.751404 321.109985,389.013428 
	C320.894135,390.779694 321.666656,392.666656 322.000000,394.500000 
"/>
<path fill="none" opacity="1.000000" stroke="#000000" stroke-linecap="round" stroke-linejoin="round" stroke-width="3.000000"
	d="
M192.500000,356.500000 
	C191.423782,353.061951 188.297852,353.818848 186.576462,354.657013 
	C182.338440,356.720703 177.819336,356.096924 173.502533,357.011932 
	C171.225662,357.494537 169.298416,356.326080 167.563995,355.382385 
	C165.911621,354.483246 164.550842,353.206207 162.500000,353.500000 
"/>
<path fill="none" opacity="1.000000" stroke="#000000" stroke-linecap="round" stroke-linejoin="round" stroke-width="3.000000"
	d="
M312.500000,393.000000 
	C308.237213,390.998962 303.835114,392.620148 299.500000,392.500000 
"/>
<path fill="none" opacity="1.000000" stroke="#000000" stroke-linecap="round" stroke-linejoin="round" stroke-width="3.000000"
	d="
M287.000000,323.000000 
	C289.000000,324.666656 291.072418,326.254974 292.981873,328.019623 
	C295.434265,330.286011 296.676208,333.075073 296.000000,336.500000 
"/>
<path fill="none" opacity="1.000000" stroke="#000000" stroke-linecap="round" stroke-linejoin="round" stroke-width="3.000000"
	d="
M90.500000,337.500000 
	C89.303192,338.519501 89.419235,339.553101 89.922592,341.026459 
	C90.859093,343.767609 91.333336,346.666656 92.000000,349.500000 
"/>
<path fill="none" opacity="1.000000" stroke="#000000" stroke-linecap="round" stroke-linejoin="round" stroke-width="5.000000"
	d="
M345.500000,403.000000 
	C341.727905,405.323151 337.330017,402.640106 333.500000,404.500000 
"/>
<path fill="none" opacity="1.000000" stroke="#000000" stroke-linecap="round" stroke-linejoin="round" stroke-width="4.000000"
	d="
M117.500000,439.500000 
	C113.908173,436.384308 109.972244,435.333191 105.500000,437.500000 
"/>
<path fill="none" opacity="1.000000" stroke="#000000" stroke-linecap="round" stroke-linejoin="round" stroke-width="4.000000"
	d="
M110.500000,328.500000 
	C104.474510,328.191528 97.590118,334.966461 98.621887,340.477173 
	C98.811684,341.490906 98.754951,342.513062 99.000000,343.500000 
"/>
<path fill="none" opacity="1.000000" stroke="#000000" stroke-linecap="round" stroke-linejoin="round" stroke-width="3.000000"
	d="
M268.500000,396.500000 
	C268.672699,401.044159 269.849152,405.014771 274.500000,407.000000 
"/>
<path fill="none" opacity="1.000000" stroke="#000000" stroke-linecap="round" stroke-linejoin="round" stroke-width="6.000000"
	d="
M381.500000,223.500000 
	C379.964478,223.539154 378.580719,223.409836 377.478455,222.017059 
	C372.401306,215.602173 371.907532,215.480331 364.500000,218.000000 
"/>
<path fill="none" opacity="1.000000" stroke="#000000" stroke-linecap="round" stroke-linejoin="round" stroke-width="4.000000"
	d="
M288.500000,291.000000 
	C288.326752,293.138763 289.558990,295.050354 290.627258,296.399200 
	C293.550018,300.089539 293.062042,303.661041 291.500000,307.500000 
"/>
<path fill="none" opacity="1.000000" stroke="#000000" stroke-linecap="round" stroke-linejoin="round" stroke-width="5.000000"
	d="
M342.500000,594.500000 
	C342.637299,598.051819 339.631439,602.052673 344.000000,605.000000 
"/>
<path fill="none" opacity="1.000000" stroke="#000000" stroke-linecap="round" stroke-linejoin="round" stroke-width="4.000000"
	d="
M336.500000,874.000000 
	C341.804932,871.524963 343.593231,872.275269 345.432526,878.021606 
	C345.686768,878.815796 345.899841,879.466736 346.500000,880.000000 
"/>
<path fill="none" opacity="1.000000" stroke="#000000" stroke-linecap="round" stroke-linejoin="round" stroke-width="4.000000"
	d="
M389.000000,275.500000 
	C388.440613,278.540344 387.960571,281.576263 389.500000,284.500000 
"/>
<path fill="none" opacity="1.000000" stroke="#000000" stroke-linecap="round" stroke-linejoin="round" stroke-width="4.000000"
	d="
M372.500000,281.000000 
	C375.527130,277.366516 375.417328,276.488251 371.500000,273.000000 
"/>
<path fill="none" opacity="1.000000" stroke="#000000" stroke-linecap="round" stroke-linejoin="round" stroke-width="3.000000"
	d="
M181.500000,365.000000 
	C177.222549,370.290039 172.847488,375.410553 165.000000,374.500000 
"/>
<path fill="none" opacity="1.000000" stroke="#000000" stroke-linecap="round" stroke-linejoin="round" stroke-width="3.000000"
	d="
M168.500000,253.500000 
	C163.653168,253.338211 161.561630,257.415314 158.500000,260.000000 
"/>
<path fill="none" opacity="1.000000" stroke="#000000" stroke-linecap="round" stroke-linejoin="round" stroke-width="4.000000"
	d="
M391.000031,370.500031 
	C388.833344,373.000031 386.666687,375.500031 384.500031,378.000031 
"/>
<path fill="none" opacity="1.000000" stroke="#000000" stroke-linecap="round" stroke-linejoin="round" stroke-width="4.000000"
	d="
M80.500000,337.000000 
	C83.045868,337.914978 82.611656,339.994598 82.518074,342.000854 
	C82.432747,343.830200 82.500000,345.666656 82.500000,347.500000 
"/>
<path fill="none" opacity="1.000000" stroke="#000000" stroke-linecap="round" stroke-linejoin="round" stroke-width="3.000000"
	d="
M138.000000,347.000000 
	C137.485168,349.639374 135.497208,351.073486 133.500000,352.500000 
"/>
<path fill="none" opacity="1.000000" stroke="#000000" stroke-linecap="round" stroke-linejoin="round" stroke-width="3.000000"
	d="
M230.500000,286.000000 
	C231.354858,288.361176 234.344269,288.975922 235.000000,291.500000 
"/>
</svg>