<?xml version="1.0" standalone="no"?>
<!DOCTYPE svg PUBLIC "-//W3C//DTD SVG 20010904//EN"
 "http://www.w3.org/TR/2001/REC-SVG-20010904/DTD/svg10.dtd">
<svg version="1.0" xmlns="http://www.w3.org/2000/svg"
 width="512.000000pt" height="512.000000pt" viewBox="0 0 512.000000 512.000000"
 preserveAspectRatio="xMidYMid meet">

<g transform="translate(0.000000,512.000000) scale(0.100000,-0.100000)"
fill="#000000" stroke="none">
<path d="M1703 4934 c-24 -24 -25 -29 -21 -122 3 -80 9 -106 31 -148 39 -76
70 -108 142 -145 60 -31 65 -37 65 -67 0 -20 -29 -90 -80 -192 -44 -88 -80
-169 -80 -181 0 -38 21 -59 98 -98 l77 -39 38 -116 c44 -133 56 -146 134 -146
l53 0 0 -40 c0 -34 -5 -43 -37 -64 l-36 -25 -69 64 c-116 107 -235 153 -373
142 -81 -6 -166 -35 -222 -76 l-39 -28 -46 47 c-26 27 -73 61 -105 76 -50 25
-70 29 -141 29 -75 0 -83 2 -87 20 -10 45 -35 201 -35 220 0 11 31 59 69 106
l69 86 89 5 c139 8 224 59 284 170 31 58 34 70 34 148 0 78 -3 90 -34 148 -38
69 -80 110 -151 144 -62 30 -270 38 -353 14 -114 -33 -190 -120 -227 -258 -20
-75 -29 -91 -86 -158 -261 -300 -403 -658 -421 -1060 -5 -123 -4 -137 13 -156
22 -25 332 -218 419 -262 181 -90 430 -131 625 -103 94 14 94 14 114 -152 24
-210 53 -284 157 -402 93 -106 101 -135 110 -385 10 -269 23 -440 55 -694 13
-110 24 -251 24 -315 -1 -111 -4 -129 -79 -428 l-79 -313 42 -11 c22 -5 56
-14 75 -19 19 -5 36 -8 37 -7 2 1 39 147 83 324 70 277 81 334 81 408 l0 85
543 0 543 0 51 -77 c70 -107 118 -207 158 -326 33 -100 65 -274 65 -356 l0
-41 80 0 80 0 0 48 c0 58 -25 224 -46 312 -39 158 -141 372 -241 504 -53 70
-75 117 -97 213 -59 262 47 552 280 759 107 96 186 198 244 318 64 132 91 239
97 394 5 108 8 122 22 116 127 -52 353 -64 496 -25 115 31 176 62 401 205 248
157 283 187 326 273 30 62 33 76 33 158 -1 108 -15 146 -107 273 -96 132 -194
246 -314 364 -127 124 -199 185 -372 310 l-125 91 -251 83 c-138 46 -260 84
-272 84 -49 0 -63 -27 -109 -210 -25 -96 -45 -186 -45 -199 0 -35 196 -231
231 -231 14 0 72 16 129 35 l104 35 39 -37 c89 -86 180 -249 200 -360 l7 -33
-88 -1 c-48 0 -125 -6 -172 -13 l-85 -14 -74 37 c-72 35 -79 36 -185 36 -99 0
-117 -3 -168 -27 -31 -14 -82 -45 -113 -68 l-57 -42 -84 83 -84 84 0 598 0
598 -25 24 -24 25 -591 0 -591 0 -26 -26z m1097 -509 l0 -376 -28 15 c-15 8
-52 32 -81 55 l-54 40 2 79 c2 86 -13 138 -52 181 -29 31 -94 61 -134 61 -30
0 -32 2 -44 56 -23 101 -16 98 -256 104 l-210 5 -37 29 c-21 16 -44 44 -52 62
-29 69 -65 64 466 64 l480 0 0 -375z m-1536 281 c18 -8 46 -30 61 -50 52 -69
43 -162 -23 -216 -43 -35 -59 -39 -38 -8 49 70 -40 167 -107 116 -38 -30 -357
-442 -357 -462 0 -11 16 -113 35 -226 43 -253 43 -261 6 -302 -28 -32 -33 -33
-115 -37 l-86 -3 0 -79 0 -79 78 0 c43 0 101 7 128 15 95 28 167 114 181 216
8 53 9 54 43 57 75 8 154 -37 189 -107 10 -20 21 -65 25 -100 12 -126 90 -237
204 -289 47 -21 76 -26 164 -30 l108 -5 0 82 0 81 -80 0 c-121 0 -183 33 -221
115 -28 61 -25 88 18 125 61 54 118 75 203 75 62 0 85 -5 132 -28 102 -50 188
-169 188 -259 l0 -28 81 0 81 0 -4 62 -3 63 48 32 c62 42 145 72 218 80 l59 6
0 78 0 79 -37 0 c-21 -1 -57 -5 -81 -9 -40 -8 -43 -7 -40 12 2 16 24 27 103
54 107 35 135 57 135 105 0 35 -39 78 -73 78 -12 0 -77 -18 -142 -40 -84 -28
-133 -40 -164 -38 l-44 3 -36 105 c-36 104 -36 105 -86 132 -27 15 -54 29 -59
31 -4 1 21 62 58 135 55 110 66 140 66 182 l0 50 88 0 89 0 12 -39 c6 -21 8
-46 5 -56 -5 -11 8 -31 42 -66 26 -27 53 -49 58 -49 5 0 23 12 38 27 40 39 62
23 66 -47 4 -59 -15 -90 -55 -90 -22 0 -23 -3 -23 -80 l0 -80 30 0 c16 0 47 7
69 16 l40 16 53 -40 c29 -22 88 -59 131 -82 l77 -42 0 -111 0 -111 144 -144
144 -144 43 4 43 3 30 -59 c53 -102 40 -241 -30 -333 -13 -17 -24 -34 -24 -38
0 -10 97 -105 107 -105 32 0 116 161 134 255 20 107 -8 249 -66 337 -14 20
-25 42 -25 48 0 23 103 60 167 60 53 0 73 -6 145 -42 146 -75 207 -164 195
-288 l-5 -57 70 -22 c53 -17 73 -20 82 -11 7 7 11 50 11 113 0 107 1 102 -73
250 -8 15 282 6 386 -11 57 -10 105 -16 106 -13 8 15 29 141 24 146 -3 3 -44
13 -92 22 -64 12 -86 19 -86 31 0 71 -69 251 -135 354 -55 85 -194 225 -232
234 -18 5 -61 -4 -134 -28 l-107 -36 -46 47 -47 47 23 92 c12 51 27 92 32 92
6 0 95 -28 199 -62 l188 -63 149 -111 c178 -133 294 -236 408 -364 104 -116
228 -281 253 -335 35 -76 15 -169 -47 -226 -45 -41 -404 -266 -475 -298 -94
-42 -162 -56 -274 -55 -104 1 -150 9 -247 47 l-58 22 0 57 0 58 -80 0 -80 0 0
-230 c0 -253 -10 -328 -59 -456 -42 -108 -108 -198 -229 -314 -121 -118 -187
-201 -239 -305 -79 -156 -113 -285 -113 -430 0 -76 18 -204 35 -247 7 -17 -21
-18 -499 -18 -278 0 -506 2 -506 4 0 1 -11 97 -25 212 -26 224 -45 503 -45
670 0 56 -5 127 -11 156 -17 81 -72 186 -135 258 -78 88 -101 142 -117 275
l-13 110 130 0 c104 0 142 4 182 19 91 34 91 35 45 109 l-41 64 -52 -18 c-93
-32 -188 -26 -335 22 l-126 41 -80 -12 c-101 -16 -256 -8 -362 20 -106 27
-198 72 -379 183 l-149 91 7 101 c25 358 174 703 414 957 43 45 56 68 68 115
9 32 20 75 25 95 12 46 53 96 94 114 41 18 216 18 259 0z"/>
<path d="M2852 3341 c-29 -10 -70 -32 -92 -50 -21 -17 -42 -31 -46 -31 -3 0
-47 20 -96 45 -50 25 -96 45 -103 45 -11 0 -55 -109 -55 -136 0 -5 27 -22 59
-37 173 -80 306 -246 346 -433 21 -100 21 -478 -1 -582 -31 -149 -68 -206
-263 -405 l-175 -178 57 -57 57 -57 146 145 c170 169 223 236 275 345 70 145
74 174 74 500 0 251 -3 299 -18 355 -28 96 -77 196 -135 273 l-52 68 33 19
c17 11 47 23 65 26 l32 6 0 79 0 79 -27 0 c-16 -1 -52 -9 -81 -19z"/>
<path d="M2550 3026 c-66 -43 -130 -61 -215 -61 -44 0 -96 3 -116 8 l-35 7
-23 -71 c-14 -44 -19 -75 -14 -80 6 -6 49 -15 96 -22 97 -13 94 -8 77 -98 -28
-148 -131 -281 -273 -355 -42 -21 -77 -43 -77 -47 0 -7 58 -127 66 -136 1 -1
40 16 86 40 122 64 241 184 296 299 41 86 72 206 72 280 0 26 5 40 13 40 12 0
139 60 166 78 12 9 7 22 -28 76 -24 36 -46 66 -50 65 -3 0 -22 -10 -41 -23z"/>
<path d="M2640 320 l0 -160 80 0 80 0 0 160 0 160 -80 0 -80 0 0 -160z"/>
</g>
</svg>
